<svg width="16" height="16" viewBox="0 0 16 16" fill="none" xmlns="http://www.w3.org/2000/svg">
<path d="M6 4H14C14.6 4 15 3.6 15 3C15 2.4 14.6 2 14 2H6C5.4 2 5 2.4 5 3C5 3.6 5.4 4 6 4Z" fill="black"/>
<path d="M14 7H6C5.4 7 5 7.4 5 8C5 8.6 5.4 9 6 9H14C14.6 9 15 8.6 15 8C15 7.4 14.6 7 14 7Z" fill="black"/>
<path d="M14 12H6C5.4 12 5 12.4 5 13C5 13.6 5.4 14 6 14H14C14.6 14 15 13.6 15 13C15 12.4 14.6 12 14 12Z" fill="black"/>
<circle cx="2" cy="3" r="1" fill="black"/>
<circle cx="2" cy="8" r="1" fill="black"/>
<circle cx="2" cy="13" r="1" fill="black"/>
</svg>
