<svg width="16" height="16" viewBox="0 0 16 16" fill="none" xmlns="http://www.w3.org/2000/svg">
<path fill-rule="evenodd" clip-rule="evenodd" d="M6 14V12C6 11.447 5.552 11 5 11C4.448 11 4 11.447 4 12V14H2V6H4V8C4 8.553 4.448 9 5 9C5.552 9 6 8.553 6 8V6H8C8.552 6 9 5.553 9 5C9 4.447 8.552 4 8 4H2V2H14V4H12C11.447 4 11 4.447 11 5C11 5.553 11.447 6 12 6H14V8H9C8.448 8 8 8.447 8 9V11C8 11.553 8.448 12 9 12C9.553 12 10 11.553 10 11V10H14V14H6ZM14 0H2C0.897 0 0 0.897 0 2V14C0 15.103 0.897 16 2 16H14C15.103 16 16 15.103 16 14V2C16 0.897 15.103 0 14 0Z" fill="white"/>
</svg>
