<?xml version="1.0" encoding="UTF-8"?>
<svg width="264px" height="259px" viewBox="0 0 264 259" version="1.1" xmlns="http://www.w3.org/2000/svg" xmlns:xlink="http://www.w3.org/1999/xlink">
    <title>icon-call</title>
    <g id="clean" stroke="none" stroke-width="1" fill="none" fill-rule="evenodd">
        <g id="desktop" transform="translate(-209.000000, -3637.000000)" fill="#E0E0E0" fill-rule="nonzero">
            <g id="Group-8-Copy-2" transform="translate(250.000000, 3254.000000)">
                <g id="icon-call" transform="translate(91.000000, 512.500000) rotate(8.000000) translate(-91.000000, -512.500000) translate(-26.000000, 399.000000)">
                    <path d="M72.2600506,66.9152382 C54.998687,66.9152382 41.2600506,80.587652 41.2600506,97.4152382 C41.2600506,114.242824 55.3509597,127.915238 72.2600506,127.915238 C89.1691415,127.915238 103.260051,114.242824 103.260051,97.4152382 C103.260051,80.587652 89.5214143,66.9152382 72.2600506,66.9152382 Z M72.2600506,121.254319 C58.873687,121.254319 48.3055052,110.737077 48.3055052,97.7658129 C48.3055052,84.7945485 59.2259597,74.2773071 72.2600506,74.2773071 C85.2941415,74.2773071 96.2145961,84.7945485 96.2145961,97.7658129 C96.2145961,110.737077 85.6464143,121.254319 72.2600506,121.254319 Z" id="Shape"></path>
                    <path d="M230.286945,0.582862075 L110.962702,0.582862075 C108.84452,0.582862075 107.432399,1.99692457 107.432399,4.11801832 L107.432399,49.3680183 C96.8414902,43.0047371 84.4854296,39.8230964 71.7763387,39.8230964 C32.589975,39.8230964 0.817247765,71.6395027 0.817247765,110.526221 C0.817247765,150.119971 32.9430053,181.582862 71.7763387,181.582862 C110.962702,181.582862 142.73543,149.766456 142.73543,110.526221 C142.73543,107.344581 142.382399,103.809425 142.029369,100.627784 L161.799066,86.1336433 L230.286945,86.1336433 C232.405127,86.1336433 233.817248,84.7195808 233.817248,82.5984871 L233.817248,4.11801832 C233.817248,1.99692457 232.405127,0.582862075 230.286945,0.582862075 Z M28.3536114,157.5438 C33.6490659,145.524268 45.6520962,137.746925 58.7142175,137.746925 L84.8384599,137.746925 C97.9005811,137.746925 109.903611,145.524268 115.199066,157.5438 C103.196036,168.502784 88.0157326,174.51255 71.7763387,174.51255 C55.5369447,174.51255 40.3566417,168.502784 28.3536114,157.5438 Z M135.674824,110.526221 C135.674824,125.727393 130.379369,140.221534 120.49452,151.88755 C113.433914,138.807471 100.018763,130.323096 84.8384599,130.323096 L58.7142175,130.323096 C43.5339144,130.323096 30.1187629,138.807471 23.0581569,151.88755 C13.1733084,140.57505 7.87785383,126.080909 7.87785383,110.526221 C7.87785383,75.1746589 36.4733084,46.5398933 71.7763387,46.5398933 C84.4854296,46.5398933 96.8414902,50.4285652 107.432399,57.4988777 L107.432399,82.2449714 C107.432399,84.3660652 108.84452,85.7801277 110.962702,85.7801277 L123.318763,85.7801277 L114.139975,113.354346 C113.786945,114.768409 114.139975,116.535987 115.552096,117.243018 C116.611187,118.303565 118.376339,118.303565 119.78846,117.243018 L135.674824,105.223487 C135.674824,107.344581 135.674824,109.112159 135.674824,110.526221 Z M226.756642,79.0633308 L160.739975,79.0633308 C160.033914,79.0633308 159.327854,79.4168464 158.621793,79.7703621 L124.377854,105.223487 L131.43846,83.6590339 C131.79149,82.5984871 131.79149,81.5379402 131.08543,80.4773933 C130.379369,79.4168464 129.320278,79.0633308 128.261187,79.0633308 L114.493005,79.0633308 L114.493005,7.65317457 L226.756642,7.65317457 L226.756642,79.0633308 Z" id="Shape"></path>
                    <path d="M125.535695,27.4587272 L216.459883,27.4587272 C218.582627,27.4587272 219.997789,26.0587272 219.997789,23.9587272 C219.997789,21.8587272 218.582627,20.4587272 216.459883,20.4587272 L125.535695,20.4587272 C123.412952,20.4587272 121.997789,21.8587272 121.997789,23.9587272 C121.997789,26.0587272 123.412952,27.4587272 125.535695,27.4587272 Z" id="Path"></path>
                    <path d="M125.20918,46.6913398 L216.133368,46.6913398 C218.256111,46.6913398 219.671274,45.2913398 219.671274,43.1913398 C219.671274,41.0913398 218.256111,39.6913398 216.133368,39.6913398 L125.20918,39.6913398 C123.086436,39.6913398 121.671274,41.0913398 121.671274,43.1913398 C121.671274,44.9413398 123.086436,46.6913398 125.20918,46.6913398 Z" id="Path"></path>
                    <path d="M125.872933,65.7847793 L216.79712,65.7847793 C218.919864,65.7847793 220.335027,64.3847793 220.335027,62.2847793 C220.335027,60.1847793 218.919864,58.7847793 216.79712,58.7847793 L125.872933,58.7847793 C123.750189,58.7847793 122.335027,60.1847793 122.335027,62.2847793 C122.335027,64.0347793 123.750189,65.7847793 125.872933,65.7847793 Z" id="Path"></path>
                    <path d="M120.081462,196.940591 L24.1121783,196.940591 C22.0029633,196.940591 20.5968199,198.340591 20.5968199,200.440591 C20.5968199,202.540591 22.0029633,203.940591 24.1121783,203.940591 L120.081462,203.940591 C122.190677,203.940591 123.59682,202.540591 123.59682,200.440591 C123.59682,198.340591 121.839141,196.940591 120.081462,196.940591 Z" id="Path"></path>
                    <path d="M120.172466,219.144008 L24.2031823,219.144008 C22.0939673,219.144008 20.687824,220.544008 20.687824,222.644008 C20.687824,224.744008 22.0939673,226.144008 24.2031823,226.144008 L120.172466,226.144008 C122.281681,226.144008 123.687824,224.744008 123.687824,222.644008 C123.687824,220.544008 121.930145,219.144008 120.172466,219.144008 Z" id="Path"></path>
                </g>
            </g>
        </g>
    </g>
</svg>