<?xml version="1.0" encoding="UTF-8"?>
<svg width="98px" height="98px" viewBox="0 0 98 98" version="1.1" xmlns="http://www.w3.org/2000/svg" xmlns:xlink="http://www.w3.org/1999/xlink">
    <title>icon-7</title>
    <g id="icon" stroke="none" stroke-width="1" fill="none" fill-rule="evenodd">
        <g id="Artboard" transform="translate(-44.000000, -874.000000)">
            <g id="icon-7" transform="translate(44.000000, 874.000000)">
                <path d="M93.2484848,0 L4.75151515,0 C2.07878788,0 0,2.07878788 0,4.75151515 L0,93.2484848 C0,95.9212121 2.07878788,98 4.75151515,98 L93.2484848,98 C95.9212121,98 98,95.9212121 98,93.2484848 L98,4.75151515 C98,2.07878788 95.9212121,0 93.2484848,0 Z M4.75151515,2.96969697 L93.2484848,2.96969697 C94.2878788,2.96969697 95.030303,3.71212121 95.030303,4.75151515 L95.030303,17.9666667 L2.96969697,17.9666667 L2.96969697,4.75151515 C2.96969697,3.71212121 3.71212121,2.96969697 4.75151515,2.96969697 Z M93.2484848,95.030303 L4.75151515,95.030303 C3.71212121,95.030303 2.96969697,94.2878788 2.96969697,93.2484848 L2.96969697,20.9363636 L95.030303,20.9363636 L95.030303,93.2484848 C95.030303,94.2878788 94.2878788,95.030303 93.2484848,95.030303 Z" id="Shape" fill="#171717" fill-rule="nonzero"></path>
                <path d="M10.7245283,15.9018868 C13.6008386,15.9018868 15.9018868,13.6008386 15.9018868,10.7245283 C15.9018868,7.84821803 13.6008386,5.54716981 10.7245283,5.54716981 C7.84821803,5.54716981 5.54716981,7.84821803 5.54716981,10.7245283 C5.54716981,13.6008386 7.84821803,15.9018868 10.7245283,15.9018868 Z M10.7245283,8.42348008 C12.0188679,8.42348008 13.0255765,9.43018868 13.0255765,10.7245283 C13.0255765,12.0188679 12.0188679,13.0255765 10.7245283,13.0255765 C9.43018868,13.0255765 8.42348008,12.0188679 8.42348008,10.7245283 C8.42348008,9.43018868 9.43018868,8.42348008 10.7245283,8.42348008 Z" id="Shape" fill="#171717" fill-rule="nonzero"></path>
                <path d="M23.2981132,15.9018868 C26.1744235,15.9018868 28.4754717,13.6008386 28.4754717,10.7245283 C28.4754717,7.84821803 26.1744235,5.54716981 23.2981132,5.54716981 C20.4218029,5.54716981 18.1207547,7.84821803 18.1207547,10.7245283 C18.1207547,13.6008386 20.4218029,15.9018868 23.2981132,15.9018868 Z M23.2981132,8.42348008 C24.5924528,8.42348008 25.5991614,9.43018868 25.5991614,10.7245283 C25.5991614,12.0188679 24.5924528,13.0255765 23.2981132,13.0255765 C22.0037736,13.0255765 20.997065,12.0188679 20.997065,10.7245283 C20.997065,9.43018868 22.0037736,8.42348008 23.2981132,8.42348008 Z" id="Shape" fill="#171717" fill-rule="nonzero"></path>
                <path d="M35.5018868,15.9018868 C38.3781971,15.9018868 40.6792453,13.6008386 40.6792453,10.7245283 C40.6792453,7.84821803 38.3781971,5.54716981 35.5018868,5.54716981 C32.6255765,5.54716981 30.3245283,7.84821803 30.3245283,10.7245283 C30.4683438,13.6008386 32.769392,15.9018868 35.5018868,15.9018868 Z M35.5018868,8.42348008 C36.7962264,8.42348008 37.802935,9.43018868 37.802935,10.7245283 C37.802935,12.0188679 36.7962264,13.0255765 35.5018868,13.0255765 C34.2075472,13.0255765 33.3446541,12.0188679 33.3446541,10.7245283 C33.3446541,9.43018868 34.3513627,8.42348008 35.5018868,8.42348008 Z" id="Shape" fill="#171717" fill-rule="nonzero"></path>
                <path d="M45.4890894,15.9018868 L90.2316653,15.9018868 C91.1205906,15.9018868 91.7132075,15.3266247 91.7132075,14.4637317 L91.7132075,6.98532495 C91.7132075,6.12243187 91.1205906,5.54716981 90.2316653,5.54716981 L45.4890894,5.54716981 C44.6001641,5.54716981 44.0075472,6.12243187 44.0075472,6.98532495 L44.0075472,14.4637317 C44.0075472,15.1828092 44.7483183,15.9018868 45.4890894,15.9018868 Z M46.9706317,8.42348008 L88.7501231,8.42348008 L88.7501231,13.0255765 L46.9706317,13.0255765 L46.9706317,8.42348008 Z" id="Shape" fill="#171717" fill-rule="nonzero"></path>
                <path d="M34.6015608,60.2792453 C35.4960782,60.2792453 36.0924232,61.0228876 36.2415094,61.7665299 L36.2415094,61.7665299 L36.2415094,86.1579984 C36.2415094,87.0503692 35.6451645,87.645283 34.750647,87.645283 L34.750647,87.645283 L9.25690013,87.645283 C8.36238269,87.645283 7.76603774,87.0503692 7.76603774,86.1579984 L7.76603774,86.1579984 L7.76603774,61.7665299 C7.76603774,60.8741591 8.36238269,60.2792453 9.25690013,60.2792453 L9.25690013,60.2792453 Z M33.2597846,63.2538146 L10.7477625,63.2538146 L10.7477625,84.6707137 L33.2597846,84.6707137 L33.2597846,63.2538146 Z M34.6015608,26.9962264 C35.4960782,26.9962264 36.0924232,27.7398687 36.2415094,28.4835111 L36.2415094,28.4835111 L36.2415094,52.8749795 C36.2415094,53.7673503 35.6451645,54.3622642 34.750647,54.3622642 L34.750647,54.3622642 L9.25690013,54.3622642 C8.36238269,54.3622642 7.76603774,53.7673503 7.76603774,52.8749795 L7.76603774,52.8749795 L7.76603774,28.4835111 C7.76603774,27.5911403 8.36238269,26.9962264 9.25690013,26.9962264 L9.25690013,26.9962264 Z M33.2597846,29.9707957 L10.7477625,29.9707957 L10.7477625,51.3876948 L33.2597846,51.3876948 L33.2597846,29.9707957 Z" id="Combined-Shape" fill="#E30613"></path>
                <path d="M89.8597874,72.1132075 L42.5326654,72.1132075 C41.6425001,72.1132075 41.0490566,72.7076706 41.0490566,73.5993652 L41.0490566,86.5289367 C41.0490566,87.4206313 41.6425001,88.0150943 42.5326654,88.0150943 L89.8597874,88.0150943 C90.7499527,88.0150943 91.3433962,87.4206313 91.3433962,86.5289367 L91.3433962,73.5993652 C91.3433962,72.8562864 90.7499527,72.1132075 89.8597874,72.1132075 Z M88.3761785,85.0427791 L44.0162743,85.0427791 L44.0162743,75.0855228 L88.3761785,75.0855228 L88.3761785,85.0427791 Z" id="Shape" fill="#171717" fill-rule="nonzero"></path>
                <path d="M89.8262216,31.4339623 L81.0266086,31.4339623 C80.1163038,31.4339623 79.509434,32.0996226 79.509434,33.0981132 C79.509434,34.0966038 80.1163038,34.7622642 81.0266086,34.7622642 L89.8262216,34.7622642 C90.7365264,34.7622642 91.3433962,34.0966038 91.3433962,33.0981132 C91.3433962,32.0996226 90.7365264,31.4339623 89.8262216,31.4339623 Z" id="Path" fill="#171717" fill-rule="nonzero"></path>
                <path d="M42.5283019,34.7622642 L76.5509434,34.7622642 C77.4384906,34.7622642 78.0301887,34.0966038 78.0301887,33.0981132 C78.0301887,32.0996226 77.4384906,31.4339623 76.5509434,31.4339623 L42.5283019,31.4339623 C41.6407547,31.4339623 41.0490566,32.0996226 41.0490566,33.0981132 C41.0490566,33.9301887 41.7886792,34.7622642 42.5283019,34.7622642 Z" id="Path" fill="#171717" fill-rule="nonzero"></path>
                <path d="M89.4847341,41.7886792 L80.9982847,41.7886792 C80.1049743,41.7886792 79.509434,42.4543396 79.509434,43.4528302 C79.509434,44.4513208 80.1049743,45.1169811 80.9982847,45.1169811 L89.4847341,45.1169811 C90.3780446,45.1169811 90.9735849,44.4513208 90.9735849,43.4528302 C90.9735849,42.4543396 90.3780446,41.7886792 89.4847341,41.7886792 Z" id="Path" fill="#171717" fill-rule="nonzero"></path>
                <path d="M42.5283019,45.1169811 L76.5509434,45.1169811 C77.4384906,45.1169811 78.0301887,44.4513208 78.0301887,43.4528302 C78.0301887,42.4543396 77.4384906,41.7886792 76.5509434,41.7886792 L42.5283019,41.7886792 C41.6407547,41.7886792 41.0490566,42.4543396 41.0490566,43.4528302 C41.0490566,44.2849057 41.7886792,45.1169811 42.5283019,45.1169811 Z" id="Path" fill="#171717" fill-rule="nonzero"></path>
                <path d="M89.4847341,51.7735849 L80.9982847,51.7735849 C80.1049743,51.7735849 79.509434,52.4392453 79.509434,53.4377358 C79.509434,54.4362264 80.1049743,55.1018868 80.9982847,55.1018868 L89.4847341,55.1018868 C90.3780446,55.1018868 90.9735849,54.4362264 90.9735849,53.4377358 C90.9735849,52.6056604 90.3780446,51.7735849 89.4847341,51.7735849 Z" id="Path" fill="#171717" fill-rule="nonzero"></path>
                <path d="M42.9010482,55.1018868 L77.287631,55.1018868 C78.1769392,55.1018868 78.7698113,54.4362264 78.7698113,53.4377358 C78.7698113,52.4392453 78.1769392,51.7735849 77.287631,51.7735849 L42.9010482,51.7735849 C42.01174,51.7735849 41.4188679,52.4392453 41.4188679,53.4377358 C41.4188679,54.4362264 42.1599581,55.1018868 42.9010482,55.1018868 Z" id="Path" fill="#171717" fill-rule="nonzero"></path>
                <path d="M89.8236237,61.7584906 L81.7688292,61.7584906 C80.8569656,61.7584906 80.2490566,62.4241509 80.2490566,63.4226415 C80.2490566,64.4211321 80.8569656,65.0867925 81.7688292,65.0867925 L89.8236237,65.0867925 C90.7354872,65.0867925 91.3433962,64.4211321 91.3433962,63.4226415 C91.3433962,62.4241509 90.7354872,61.7584906 89.8236237,61.7584906 Z" id="Path" fill="#171717" fill-rule="nonzero"></path>
                <path d="M42.8951898,65.0867925 L77.2934894,65.0867925 C78.1792826,65.0867925 78.7698113,64.4211321 78.7698113,63.4226415 C78.7698113,62.4241509 78.1792826,61.7584906 77.2934894,61.7584906 L42.8951898,61.7584906 C42.0093967,61.7584906 41.4188679,62.4241509 41.4188679,63.4226415 C41.4188679,64.254717 42.1570289,65.0867925 42.8951898,65.0867925 Z" id="Path" fill="#171717" fill-rule="nonzero"></path>
            </g>
        </g>
    </g>
</svg>