<?xml version="1.0" encoding="UTF-8"?>
<svg width="12px" height="10px" viewBox="0 0 12 10" version="1.1" xmlns="http://www.w3.org/2000/svg" xmlns:xlink="http://www.w3.org/1999/xlink">
    <title>check-red</title>
    <g id="clean" stroke="none" stroke-width="1" fill="none" fill-rule="evenodd">
        <g id="desktop" transform="translate(-252.000000, -384.000000)" fill="#E30613" fill-rule="nonzero">
            <g id="Group-15" transform="translate(-272.000000, -127.000000)">
                <g id="Group-2" transform="translate(523.000000, 275.000000)">
                    <g id="Group-9" transform="translate(1.000000, 226.000000)">
                        <path d="M5,19.9744333 C4.7,19.9744333 4.5,19.8744333 4.3,19.6744333 L0.3,15.6744333 C-0.1,15.2744333 -0.1,14.6744333 0.3,14.2744333 C0.7,13.8744333 1.3,13.8744333 1.7,14.2744333 L4.9,17.4744333 L10.2,10.3744333 C10.5,9.97443332 11.2,9.87443332 11.6,10.1744333 C12,10.4744333 12.1,11.1744333 11.8,11.5744333 L5.8,19.5744333 C5.6,19.7744333 5.4,19.9744333 5,19.9744333 C5,19.9744333 5,19.9744333 5,19.9744333 Z" id="check-red"></path>
                    </g>
                </g>
            </g>
        </g>
    </g>
</svg>