<?xml version="1.0" encoding="UTF-8"?>
<svg width="98px" height="98px" viewBox="0 0 98 98" version="1.1" xmlns="http://www.w3.org/2000/svg" xmlns:xlink="http://www.w3.org/1999/xlink">
    <title>icon-2</title>
    <g id="icon" stroke="none" stroke-width="1" fill="none" fill-rule="evenodd">
        <g id="Artboard" transform="translate(-44.000000, -169.000000)">
            <g id="icon-2" transform="translate(44.000000, 169.000000)">
                <path d="M36.5144231,17.4326923 C39.6856509,17.4326923 42.4038462,14.8655079 42.4038462,11.5432692 C42.4038462,8.37204142 39.8366617,5.65384615 36.5144231,5.65384615 C33.3431953,5.65384615 30.625,8.22103057 30.625,11.5432692 C30.7760108,14.714497 33.3431953,17.4326923 36.5144231,17.4326923 Z M36.5144231,8.67406312 C38.0245316,8.67406312 39.3836292,9.8821499 39.3836292,11.5432692 C39.3836292,13.0533777 38.1755424,14.4124753 36.5144231,14.4124753 C35.0043146,14.4124753 33.645217,13.2043886 33.645217,11.5432692 C33.7962278,10.0331607 35.0043146,8.67406312 36.5144231,8.67406312 Z" id="Shape" fill="#4A4A4A" fill-rule="nonzero"></path>
                <path d="M98,57.8214826 C98,57.8214826 98,57.8214826 98,57.8214826 L98,44.6263238 C98,43.7367625 97.4060606,43.1437216 96.5151515,43.1437216 C83.0030303,43.1437216 73.5,43.1437216 72.9060606,43.1437216 L72.9060606,17.1981846 C72.9060606,16.3086233 72.3121212,15.7155825 71.4212121,15.7155825 L53.6030303,15.7155825 C52.1181818,13.0468986 49.7424242,10.9712557 46.7727273,9.48865356 C46.4757576,4.29954614 41.8727273,0 36.3787879,0 C30.8848485,0 26.2818182,4.15128593 25.9848485,9.48865356 C23.0151515,10.8229955 20.7878788,13.0468986 19.1545455,15.7155825 L1.48484848,15.7155825 C0.593939394,15.7155825 0,16.3086233 0,17.1981846 L0,96.5173979 C0,97.4069592 0.593939394,98 1.48484848,98 C5.49393939,98 57.1666667,98 96.5151515,98 C97.4060606,98 98,97.4069592 98,96.5173979 L98,57.8214826 C98,57.8214826 98,57.8214826 98,57.8214826 Z M95.030303,56.3388805 L78.5484848,56.3388805 L78.5484848,46.1089259 L95.030303,46.1089259 L95.030303,56.3388805 Z M59.5424242,56.3388805 L42.9121212,56.3388805 L42.9121212,46.1089259 L59.3939394,46.1089259 L59.3939394,56.3388805 L59.5424242,56.3388805 Z M62.5121212,46.1089259 L75.5787879,46.1089259 L75.5787879,65.9757943 L70.0848485,59.8971256 C69.7878788,59.6006051 69.4909091,59.4523449 69.0454545,59.4523449 C68.6,59.4523449 68.1545455,59.6006051 68.0060606,59.8971256 L62.5121212,65.9757943 L62.5121212,46.1089259 L62.5121212,46.1089259 Z M28.0636364,11.8608169 C28.6575758,11.5642965 29.1030303,10.9712557 28.9545455,10.3782148 C28.9545455,10.2299546 28.9545455,10.0816944 28.9545455,10.0816944 C28.9545455,6.2269289 32.2212121,3.11346445 36.3787879,3.11346445 C40.5363636,3.11346445 43.8030303,6.2269289 43.8030303,10.0816944 C43.8030303,10.2299546 43.8030303,10.2299546 43.8030303,10.3782148 C43.8030303,10.9712557 44.1,11.5642965 44.6939394,11.8608169 C47.6636364,13.0468986 49.8909091,15.1225416 51.2272727,17.7912254 C51.2272727,17.7912254 51.2272727,17.7912254 51.2272727,17.7912254 C51.969697,19.2738275 52.4151515,21.0529501 52.4151515,22.8320726 L20.3424242,22.8320726 C20.3424242,18.0877458 23.4606061,13.7881997 28.0636364,11.8608169 Z M2.96969697,18.6807867 L17.9666667,18.6807867 C17.2242424,21.0529501 17.3727273,22.6838124 17.3727273,24.3146747 C17.3727273,25.204236 17.9666667,25.7972769 18.8575758,25.7972769 L54.1969697,25.7972769 C55.0878788,25.7972769 55.6818182,25.204236 55.6818182,24.3146747 C55.6818182,22.6838124 55.830303,21.0529501 55.0878788,18.6807867 L70.0848485,18.6807867 L70.0848485,43.1437216 C69.6393939,43.1437216 59.6909091,43.1437216 41.7242424,43.1437216 C40.8333333,43.1437216 40.2393939,43.7367625 40.2393939,44.6263238 L40.2393939,95.0347958 L2.96969697,95.0347958 L2.96969697,18.6807867 Z M42.9121212,95.0347958 L42.9121212,59.3040847 L59.3939394,59.3040847 L59.3939394,69.6822995 C59.3939394,70.2753404 59.8393939,70.8683812 60.2848485,71.0166415 C60.8787879,71.1649017 61.4727273,71.0166415 61.9181818,70.5718608 L68.8969697,62.8623298 L75.8757576,70.5718608 C76.3212121,71.0166415 76.9151515,71.1649017 77.5090909,71.0166415 C78.1030303,70.8683812 78.4,70.2753404 78.4,69.6822995 L78.4,59.3040847 L95.030303,59.3040847 L95.030303,95.0347958 C68.7484848,95.0347958 80.9242424,95.0347958 42.9121212,95.0347958 Z" id="Shape" fill="#4A4A4A" fill-rule="nonzero"></path>
                <path d="M21.9074407,60.3076923 C30.2179152,60.3076923 36.895975,66.9862981 36.7475737,75.1490385 C36.7475737,83.3117788 30.0695138,89.9903846 21.9074407,89.9903846 C13.7453675,89.9903846 7.06730769,83.3117788 7.06730769,75.1490385 C7.06730769,66.9862981 13.7453675,60.3076923 21.9074407,60.3076923 Z M21.9074407,63.424375 C15.3777822,63.424375 10.0353343,68.7672596 10.0353343,75.2974519 C10.0353343,81.8276442 15.3777822,87.1705288 21.9074407,87.1705288 C28.5855005,87.1705288 33.9279484,81.8276442 33.7795471,75.2974519 C33.7795471,68.7672596 28.4370992,63.424375 21.9074407,63.424375 Z M28.5754112,70.6516608 C29.0202482,70.0520105 30.058201,70.0520105 30.6513169,70.6516608 C31.2444328,71.2513112 31.2444328,72.1507867 30.6513169,72.7504371 L30.6513169,72.7504371 L20.5683465,82.944493 C20.2717886,83.2443182 19.9752306,83.3942308 19.5303937,83.3942308 L19.5303937,83.3942308 L19.3821147,83.3942308 C18.9372778,83.3942308 18.6407198,83.0944056 18.3441619,82.7945804 L18.3441619,82.7945804 L13.4509556,76.4982517 C13.0061187,75.8986014 13.1543977,74.8492133 13.7475136,74.3994755 C14.3406295,73.9497378 15.3785823,74.0996503 15.8234193,74.6993007 L15.8234193,74.6993007 L19.6786726,79.6464161 Z" id="Combined-Shape" fill="#E30613"></path>
                <path d="M7.13461538,34.8653846 L56,34.8653846 C56.8884615,34.8653846 57.4807692,34.3 57.4807692,33.4519231 C57.4807692,32.6038462 56.8884615,32.0384615 56,32.0384615 L7.13461538,32.0384615 C6.24615385,32.0384615 5.65384615,32.6038462 5.65384615,33.4519231 C5.65384615,34.1586538 6.24615385,34.8653846 7.13461538,34.8653846 Z" id="Path" fill="#4A4A4A" fill-rule="nonzero"></path>
                <path d="M7.13461538,46.1730769 L35.2692308,46.1730769 C36.1576923,46.1730769 36.75,45.6076923 36.75,44.7596154 C36.75,43.9115385 36.1576923,43.3461538 35.2692308,43.3461538 L7.13461538,43.3461538 C6.24615385,43.3461538 5.65384615,43.9115385 5.65384615,44.7596154 C5.65384615,45.4663462 6.24615385,46.1730769 7.13461538,46.1730769 Z" id="Path" fill="#4A4A4A" fill-rule="nonzero"></path>
                <path d="M35.2692308,54.1826923 L7.13461538,54.1826923 C6.24615385,54.1826923 5.65384615,54.7480769 5.65384615,55.5961538 C5.65384615,56.4442308 6.24615385,57.0096154 7.13461538,57.0096154 L35.2692308,57.0096154 C36.1576923,57.0096154 36.75,56.4442308 36.75,55.5961538 C36.75,54.8894231 36.0096154,54.1826923 35.2692308,54.1826923 Z" id="Path" fill="#4A4A4A" fill-rule="nonzero"></path>
            </g>
        </g>
    </g>
</svg>