<?xml version="1.0" encoding="UTF-8"?>
<svg width="98px" height="98px" viewBox="0 0 98 98" version="1.1" xmlns="http://www.w3.org/2000/svg" xmlns:xlink="http://www.w3.org/1999/xlink">
    <title>icon-6</title>
    <g id="icon" stroke="none" stroke-width="1" fill="none" fill-rule="evenodd">
        <g id="Artboard" transform="translate(-44.000000, -733.000000)">
            <g id="icon-6" transform="translate(44.000000, 733.000000)">
                <path d="M17,27 C23.0789474,27 28,22.0789474 28,16 C28,9.92105263 23.0789474,5 17,5 C10.9210526,5.14473684 6,10.0657895 6,16.1447368 C6,22.0789474 10.9210526,27 17,27 Z M17,8.03947368 C21.4868421,8.03947368 25.1052632,11.6578947 25.1052632,16.1447368 C25.1052632,20.6315789 21.4868421,24.25 17,24.25 C12.5131579,24.25 8.89473684,20.6315789 8.89473684,16.1447368 C8.89473684,11.6578947 12.5131579,8.03947368 17,8.03947368 Z" id="Shape" fill="#4A4A4A" fill-rule="nonzero"></path>
                <path d="M96.5151515,0 L39.0515152,0 C38.1606061,0 37.5666667,0.593939394 37.5666667,1.48484848 L37.5666667,23.6090909 L33.1121212,27.1727273 L10.6909091,28.0636364 C10.6909091,28.0636364 10.6909091,28.0636364 10.6909091,28.0636364 C10.6909091,28.0636364 10.6909091,28.0636364 10.6909091,28.0636364 C10.2454545,28.0636364 0,28.8060606 0,36.230303 L0,61.769697 C0,62.2151515 0.148484848,62.5121212 0.445454545,62.8090909 C0.742424242,63.1060606 1.03939394,63.2545455 1.48484848,63.2545455 L4.9,63.2545455 L4.9,96.5151515 C4.9,97.4060606 5.49393939,98 6.38484848,98 L13.6606061,98 C14.4030303,98 14.9969697,97.4060606 15.1454545,96.6636364 L17.669697,76.9151515 L20.7878788,96.8121212 C20.9363636,97.5545455 21.530303,98 22.2727273,98 L29.8454545,98 C30.2909091,98 30.5878788,97.8515152 30.8848485,97.5545455 C31.1818182,97.2575758 31.330303,96.9606061 31.330303,96.5151515 L31.0333333,41.8727273 C31.0333333,41.5757576 31.1818182,40.3878788 31.7757576,40.0909091 C32.369697,39.7939394 33.4090909,39.9424242 34.7454545,40.5363636 C35.3393939,40.8333333 35.9333333,40.6848485 36.3787879,40.2393939 L37.7151515,39.0515152 L37.7151515,49.4454545 C37.7151515,50.3363636 38.3090909,50.930303 39.2,50.930303 C40.0909091,50.930303 40.6848485,50.3363636 40.6848485,49.4454545 L40.6848485,36.3787879 L56.1272727,22.8666667 C56.4242424,22.569697 56.5727273,22.2727273 56.5727273,21.8272727 C56.5727273,21.3818182 56.4242424,21.0848485 56.1272727,20.7878788 L50.4848485,14.8484848 C49.8909091,14.2545455 49,14.2545455 48.4060606,14.7 L40.5363636,21.0848485 L40.5363636,2.96969697 L95.030303,2.96969697 L95.030303,95.030303 L40.5363636,95.030303 L40.5363636,87.0121212 C40.5363636,86.1212121 39.9424242,85.5272727 39.0515152,85.5272727 C38.1606061,85.5272727 37.5666667,86.1212121 37.5666667,87.0121212 L37.5666667,96.5151515 C37.5666667,97.4060606 38.1606061,98 39.0515152,98 L96.5151515,98 C97.4060606,98 98,97.4060606 98,96.5151515 L98,1.48484848 C98,0.593939394 97.4060606,0 96.5151515,0 Z M49.1484848,17.9666667 L52.8606061,21.8272727 L35.0424242,37.4181818 C33.1121212,36.6757576 31.4787879,36.8242424 30.1424242,37.5666667 C28.0636364,38.9030303 27.9151515,41.5757576 27.9151515,41.8727273 L28.2121212,95.030303 L23.4606061,95.030303 L18.8575758,66.3727273 C18.7090909,65.630303 18.1151515,65.0363636 17.3727273,65.1848485 C16.630303,65.1848485 16.0363636,65.7787879 15.8878788,66.5212121 L12.3242424,95.030303 L7.86969697,95.030303 L7.86969697,63.2545455 L8.76060606,63.2545455 C9.65151515,63.2545455 10.2454545,62.6606061 10.2454545,61.769697 L10.2454545,48.1090909 C10.2454545,47.2181818 9.65151515,46.6242424 8.76060606,46.6242424 C7.86969697,46.6242424 7.27575758,47.2181818 7.27575758,48.1090909 L7.27575758,60.2848485 L2.96969697,60.2848485 L2.96969697,36.230303 C2.96969697,31.6272727 10.6909091,31.0333333 10.8393939,31.0333333 L33.8545455,30.1424242 C33.8545455,30.1424242 34.0030303,30.1424242 34.0030303,30.1424242 C34.1515152,30.1424242 34.1515152,30.1424242 34.3,30.1424242 C34.4484848,30.1424242 34.4484848,29.9939394 34.5969697,29.9939394 C34.5969697,29.9939394 34.7454545,29.9939394 34.7454545,29.8454545 L49.1484848,17.9666667 Z" id="Shape" fill="#4A4A4A" fill-rule="nonzero"></path>
                <path d="M84,56.4851485 L84,68.5148515 C84,69.4059406 84.6,70 85.5,70 C86.4,70 87,69.4059406 87,68.5148515 L87,56.4851485 C87,55.5940594 86.4,55 85.5,55 C84.75,55 84,55.7425743 84,56.4851485 Z" id="Path" fill="#4A4A4A" fill-rule="nonzero"></path>
                <path d="M91,45 C91,41.6153846 88.2307692,39 85,39 C81.6153846,39 79,41.7692308 79,45 C79,48.3846154 81.7692308,51 85,51 C88.2307692,51 91,48.3846154 91,45 Z M84.8461538,47.9230769 C83.1538462,47.9230769 81.9230769,46.5384615 81.9230769,45 C81.9230769,43.3076923 83.3076923,42.0769231 84.8461538,42.0769231 C86.5384615,42.0769231 87.7692308,43.4615385 87.7692308,45 C87.9230769,46.6923077 86.5384615,47.9230769 84.8461538,47.9230769 Z" id="Shape" fill="#4A4A4A" fill-rule="nonzero"></path>
                <path d="M57.114094,89.7779605 C57.557047,90.0740132 58.147651,90.0740132 58.590604,89.7779605 L79.261745,78.6759868 C79.704698,78.3799342 80,77.9358553 80,77.34375 L80,57.8042763 C80,57.3601974 79.704698,56.7680921 79.114094,56.4720395 C79.114094,56.4720395 79.114094,56.4720395 79.114094,56.4720395 L58.590604,45.2220395 C58.147651,44.9259868 57.557047,44.9259868 57.261745,45.2220395 C48.6979866,49.8108553 36.738255,56.1759868 36.738255,56.1759868 C36.295302,56.4720395 36,57.0641447 36,57.5082237 L36,75.5674342 C36,76.0115132 36.295302,76.6036184 36.738255,76.7516447 L57.114094,89.7779605 C57.114094,89.7779605 57.114094,89.7779605 57.114094,89.7779605 Z M59.3288591,86.0773026 L59.3288591,69.9424342 L64.9395973,66.8338816 L64.9395973,71.2746711 C64.9395973,72.4588816 66.1208054,73.0509868 67.1543624,72.6069079 L72.1744966,69.7944079 C72.6174497,69.4983553 72.9127517,69.0542763 72.9127517,68.4621711 L72.9127517,62.5411184 L77.0469799,60.3207237 L77.0469799,76.6036184 L59.3288591,86.0773026 Z M50.6174497,52.03125 L69.9597315,62.5411184 L69.9597315,67.7220395 L67.8926174,68.90625 L67.8926174,64.4654605 C67.8926174,63.8733553 67.5973154,63.4292763 67.1543624,63.1332237 L48.6979866,53.0674342 L50.6174497,52.03125 Z M57.852349,48.1825658 L75.4228188,57.8042763 L71.4362416,60.0246711 L53.8657718,50.4029605 L57.852349,48.1825658 Z M45.5973154,54.6957237 L63.4630872,64.3174342 L58,67.2779605 L40.4295302,57.3601974 L45.5973154,54.6957237 Z M38.8053691,74.6792763 L38.8053691,59.8766447 L56.3758389,69.7944079 L56.3758389,85.78125 L38.8053691,74.6792763 Z" id="Shape" fill="#E30613"></path>
            </g>
        </g>
    </g>
</svg>