<?xml version="1.0" encoding="UTF-8"?>
<svg width="98px" height="98px" viewBox="0 0 98 98" version="1.1" xmlns="http://www.w3.org/2000/svg" xmlns:xlink="http://www.w3.org/1999/xlink">
    <title>icon-5</title>
    <g id="icon" stroke="none" stroke-width="1" fill="none" fill-rule="evenodd">
        <g id="Artboard" transform="translate(-44.000000, -592.000000)">
            <g id="icon-5" transform="translate(44.000000, 592.000000)">
                <path d="M97.2579813,34.6209769 L49.9171856,0.333964407 C49.4719744,-0.111321469 48.7299556,-0.111321469 48.1363406,0.333964407 L0.647141223,34.7694055 C0.0535262305,35.2146914 -0.0948775176,35.8084059 0.0535262305,36.4021204 C0.201929979,36.9958349 0.795544971,37.4411208 1.53756371,37.4411208 L6.4348874,37.4411208 L6.4348874,96.5157137 C6.4348874,97.4062855 7.02850239,98 7.91892488,98 C24.3917409,98 74.1069966,98 89.9861976,98 C90.8766201,98 91.4702351,97.4062855 91.4702351,96.5157137 L91.4702351,37.4411208 L96.5159625,37.4411208 C96.5159625,37.4411208 96.5159625,37.4411208 96.5159625,37.4411208 C97.406385,37.4411208 98,36.8474063 98,35.9568345 C98,35.36312 97.7031925,34.7694055 97.2579813,34.6209769 Z M17.4167648,95.0314275 L17.4167648,45.0109807 L80.4883577,45.0109807 L80.4883577,95.0314275 L17.4167648,95.0314275 Z M88.6505639,95.0314275 L83.6048364,95.0314275 L83.6048364,43.5266944 C83.6048364,42.6361227 83.0112214,42.0424082 82.1207989,42.0424082 L15.9327273,42.0424082 C15.0423048,42.0424082 14.4486898,42.6361227 14.4486898,43.5266944 L14.4486898,95.0314275 L9.40296236,95.0314275 L9.40296236,37.4411208 L88.5021601,37.4411208 L88.5021601,95.0314275 L88.6505639,95.0314275 Z M6.1380799,34.4725483 L49.0267631,3.30253692 L91.9154463,34.3241197 C77.8170903,34.4725483 13.8550748,34.4725483 6.1380799,34.4725483 Z" id="Shape" fill="#4A4A4A" fill-rule="nonzero"></path>
                <path d="M38.9315068,21.8150685 C38.9315068,27.5300019 43.620683,32.2191781 49.3356164,32.2191781 C55.0505499,32.2191781 59.739726,27.5300019 59.739726,21.8150685 C59.739726,16.1001351 55.0505499,11.4109589 49.3356164,11.4109589 C43.620683,11.5574957 38.9315068,16.1001351 38.9315068,21.8150685 Z M56.6624542,21.8150685 C56.6624542,25.9180976 53.2921088,29.288443 49.1890797,29.288443 C45.0860505,29.288443 41.7157052,25.9180976 41.7157052,21.8150685 C41.7157052,17.7120394 45.0860505,14.341694 49.1890797,14.341694 C53.4386456,14.4882308 56.6624542,17.7120394 56.6624542,21.8150685 Z" id="Shape" fill="#4A4A4A" fill-rule="nonzero"></path>
                <path d="M76.5282362,72.4931507 C77.259324,72.4931507 77.9904117,73.0919484 77.8441941,73.9901449 L77.8441941,73.9901449 L77.8441941,91.8043757 C77.8441941,92.7025722 77.259324,93.3013699 76.3820187,93.3013699 L76.3820187,93.3013699 L59.8594358,93.3013699 C58.9821305,93.3013699 58.3972603,92.7025722 58.3972603,91.8043757 L58.3972603,91.8043757 L58.3972603,73.9901449 C58.3972603,73.0919484 58.9821305,72.4931507 59.8594358,72.4931507 L59.8594358,72.4931507 Z M53.5718737,61.7534247 C54.453407,61.7534247 55.0410959,62.3472076 55.0410959,63.237882 L55.0410959,63.237882 L55.0410959,91.1456797 C55.0410959,92.0363541 54.453407,92.630137 53.5718737,92.630137 L53.5718737,92.630137 L22.2774414,92.630137 C21.395908,92.630137 20.8082192,92.0363541 20.8082192,91.1456797 L20.8082192,91.1456797 L20.8082192,63.237882 C20.8082192,62.3472076 21.395908,61.7534247 22.2774414,61.7534247 L22.2774414,61.7534247 Z M74.9198432,75.4871391 L61.3216112,75.4871391 L61.3216112,90.3073815 L74.9198432,90.3073815 L74.9198432,75.4871391 Z M32.2681522,71.6992887 L23.7466635,71.6992887 L23.7466635,89.8096681 L51.9557293,89.8096681 L51.9557293,71.6992887 L43.4342407,71.6992887 L43.4342407,75.7073235 C43.4342407,76.3011064 43.1403963,76.8948894 42.5527074,77.0433351 C41.9650185,77.1917808 41.3773296,77.0433351 40.936563,76.5979979 L40.936563,76.5979979 L37.8511964,73.0353003 L34.7658299,76.5979979 C34.3250632,77.0433351 33.7373743,77.1917808 33.1496855,77.0433351 C32.7089188,76.8948894 32.2681522,76.3011064 32.2681522,75.7073235 L32.2681522,75.7073235 L32.2681522,71.6992887 Z M40.6427186,64.870785 L35.0596743,64.870785 L35.0596743,71.8477345 L36.6758187,69.9179399 C36.9696631,69.6210485 37.4104298,69.4726027 37.8511964,69.4726027 C38.2919631,69.4726027 38.7327297,69.6210485 39.0265742,69.9179399 L39.0265742,69.9179399 L40.6427186,71.6992887 L40.6427186,64.870785 Z M52.1026515,64.7223393 L43.5811629,64.7223393 L43.5811629,68.7303741 L52.1026515,68.7303741 L52.1026515,64.7223393 Z M32.1212299,64.7223393 L23.5997413,64.7223393 L23.5997413,68.7303741 L32.1212299,68.7303741 L32.1212299,64.7223393 Z" id="Combined-Shape" fill="#E30613"></path>
                <path d="M76.5282362,49 L59.8594358,49 C58.9821305,49 58.3972603,49.5987977 58.3972603,50.4969942 L58.3972603,68.311225 C58.3972603,69.2094215 58.9821305,69.8082192 59.8594358,69.8082192 L76.3820187,69.8082192 C77.259324,69.8082192 77.8441941,69.2094215 77.8441941,68.311225 L77.8441941,50.4969942 C77.9904117,49.7484971 77.259324,49 76.5282362,49 Z M75.0660607,66.9639302 L61.3216112,66.9639302 L61.3216112,52.1436878 L74.9198432,52.1436878 L74.9198432,66.9639302 L75.0660607,66.9639302 Z" id="Shape" fill="#4A4A4A" fill-rule="nonzero"></path>
            </g>
        </g>
    </g>
</svg>