<?xml version="1.0" encoding="UTF-8"?>
<svg width="98px" height="98px" viewBox="0 0 98 98" version="1.1" xmlns="http://www.w3.org/2000/svg" xmlns:xlink="http://www.w3.org/1999/xlink">
    <title>icon-4</title>
    <defs>
        <path d="M96.4929198,39.3332526 L83.8746149,39.3332526 L83.8746149,21.1258652 L84.6589846,21.1258652 C85.5496885,21.1258652 86.4403923,20.3857275 86.4403923,19.3495347 L86.4403923,15.3527911 C86.4403923,11.9481577 84.0230655,9.13563444 80.6087007,9.13563444 L74.9675761,9.13563444 C75.2644774,8.39549674 75.5613787,7.5073315 75.4129281,6.61916626 C74.8191255,-0.338128131 65.0213829,-2.41051369 61.1616661,3.51058791 L58.1926531,8.09944166 L55.2236402,3.51058791 C51.5123741,-2.41051369 41.7146315,-0.486155671 40.9723782,6.61916626 C41.1208289,7.5073315 41.2692795,8.39549674 41.5661808,9.13563444 L35.9250563,9.13563444 C32.5106914,9.13563444 29.6901292,11.9481577 29.6901292,15.3527911 L29.6901292,19.3495347 C29.6901292,20.2377 30.4323824,21.1258652 31.4715369,21.1258652 L32.6591421,21.1258652 L32.6591421,39.3332526 L16.9233736,39.3332526 L11.1337984,19.3495347 C10.9853478,18.7574246 10.3915452,18.3133419 9.64929198,18.3133419 L1.48450646,18.3133419 C0.593802583,18.3133419 0,18.9054521 0,19.7936173 C0,20.6817826 0.593802583,21.2738927 1.48450646,21.2738927 L8.61013746,21.2738927 L23.900554,74.5638072 C24.0490046,75.1559174 24.6428072,75.6 25.3850604,75.6 L87.4374304,75.6 C88.1796836,75.6 88.6250355,75.1559174 88.9219368,74.5638072 L97.9774262,41.1095831 C98.1258769,40.3694454 97.5320743,39.3332526 96.4929198,39.3332526 Z M81.0540526,50.8794008 C81.0540526,51.3234834 80.6087007,51.767566 80.1633487,51.767566 L63.685327,51.767566 L63.685327,21.1258652 L81.0540526,21.1258652 C81.0540526,22.7541681 81.0540526,43.7740789 81.0540526,50.8794008 Z M55.9658935,51.6195385 L55.9658935,21.1258652 L60.7163141,21.1258652 L60.7163141,51.767566 L55.9658935,51.767566 L55.9658935,51.6195385 Z M63.8337777,5.13889086 C66.208988,1.58622989 72.1470139,2.77045021 72.5923658,6.91522134 C72.7408164,7.95141412 71.7016619,8.9876069 70.3656061,9.13563444 L61.3101167,9.13563444 L63.8337777,5.13889086 Z M44.0898418,6.91522134 C44.5351937,2.91847775 50.6216702,1.58622989 52.8484299,5.13889086 L55.3720909,9.13563444 L46.3166015,9.13563444 C44.9805457,9.13563444 43.9413912,8.09944166 44.0898418,6.91522134 Z M32.8075927,15.3527911 C32.8075927,13.5764606 34.2920992,12.0961852 36.0735069,12.0961852 C37.5580134,12.0961852 76.3036319,12.0961852 80.6087007,12.0961852 C82.3901084,12.0961852 83.8746149,13.5764606 83.8746149,15.3527911 L83.8746149,18.1653144 L82.3901084,18.1653144 C57.4503999,18.1653144 59.3802583,18.1653144 34.4405498,18.1653144 L32.9560434,18.1653144 L32.9560434,15.3527911 L32.8075927,15.3527911 Z M52.9968805,21.1258652 L52.9968805,51.767566 L36.3704082,51.767566 C35.9250563,51.767566 35.4797043,51.3234834 35.4797043,50.8794008 L35.4797043,21.1258652 L52.9968805,21.1258652 Z M32.6591421,42.2938035 L32.6591421,50.8794008 C32.6591421,52.9517863 34.4405498,54.7281168 36.5188589,54.7281168 C36.5188589,54.7281168 79.2726449,54.7281168 80.3117994,54.7281168 C82.3901084,54.7281168 83.8746149,52.9517863 83.8746149,50.8794008 L83.8746149,42.2938035 L94.711512,42.2938035 L90.2579926,57.8366952 L22.2675969,57.8366952 L17.8140775,42.1457759 L32.6591421,42.1457759 L32.6591421,42.2938035 Z M86.2498252,72.6394492 L26.424215,72.6394492 L23.0098501,60.797246 L89.3672888,60.797246 L86.2498252,72.6394492 Z" id="path-1"></path>
    </defs>
    <g id="icon" stroke="none" stroke-width="1" fill="none" fill-rule="evenodd">
        <g id="Artboard" transform="translate(-44.000000, -451.000000)">
            <g id="icon-4" transform="translate(44.000000, 451.000000)">
                <path d="M75.3666667,79.8 C70.3763441,79.8 66.2666667,83.9096774 66.2666667,88.9 C66.2666667,93.8903226 70.3763441,98 75.3666667,98 C80.3569892,98 84.4666667,93.8903226 84.4666667,88.9 C84.4666667,83.9096774 80.5037634,79.8 75.3666667,79.8 Z M75.3666667,95.0645161 C71.9908602,95.0645161 69.2021505,92.2758065 69.2021505,88.9 C69.2021505,85.5241935 71.9908602,82.7354839 75.3666667,82.7354839 C78.7424731,82.7354839 81.5311828,85.5241935 81.5311828,88.9 C81.5311828,92.2758065 78.8892473,95.0645161 75.3666667,95.0645161 Z" id="Shape" fill="#000000" fill-rule="nonzero"></path>
                <path d="M37.1,79.8 C32.1096774,79.8 28,83.9096774 28,88.9 C28,93.8903226 32.1096774,98 37.1,98 C42.0903226,98 46.2,93.8903226 46.2,88.9 C46.2,83.9096774 42.2370968,79.8 37.1,79.8 Z M37.1,95.0645161 C33.7241935,95.0645161 30.9354839,92.2758065 30.9354839,88.9 C30.9354839,85.5241935 33.7241935,82.7354839 37.1,82.7354839 C40.4758065,82.7354839 43.2645161,85.5241935 43.2645161,88.9 C43.2645161,92.2758065 40.6225806,95.0645161 37.1,95.0645161 Z" id="Shape" fill="#000000" fill-rule="nonzero"></path>
                <mask id="mask-2" fill="white">
                    <use xlink:href="#path-1"></use>
                </mask>
                <use id="Shape" fill="#000000" fill-rule="nonzero" xlink:href="#path-1"></use>
                <rect id="Rectangle" fill="#FFFAE5" mask="url(#mask-2)" x="30.4888889" y="38.6555556" width="2.17777778" height="4.9"></rect>
                <path d="M89.6,-1.94444444 L89.6,32.5888889 L84.544,32.5885556 L84.5444444,55.4555556 L32.6666667,55.4555556 L32.666,32.5885556 L29.4,32.5888889 L29.4,-1.94444444 L89.6,-1.94444444 Z" id="Combined-Shape" fill="#E30613" mask="url(#mask-2)"></path>
                <rect id="Rectangle-Copy-6" fill="#FFFAE5" mask="url(#mask-2)" x="83.8444444" y="38.6555556" width="2.17777778" height="4.9"></rect>
            </g>
        </g>
    </g>
</svg>