<?xml version="1.0" encoding="UTF-8"?>
<svg width="98px" height="98px" viewBox="0 0 98 98" version="1.1" xmlns="http://www.w3.org/2000/svg" xmlns:xlink="http://www.w3.org/1999/xlink">
    <title>icon-3</title>
    <g id="icon" stroke="none" stroke-width="1" fill="none" fill-rule="evenodd">
        <g id="Artboard" transform="translate(-44.000000, -310.000000)">
            <g id="icon-3" transform="translate(44.000000, 310.000000)">
                <path d="M32.112713,67.1049804 L8.98566741,67.1049804 C6.77607706,67.1049804 5.00840478,65.3312804 5.00840478,63.1141555 L5.00840478,41.8297565 C5.45032285,41.9775648 5.7449349,41.9775648 6.18685297,41.9775648 L28.5773685,41.9775648 L28.5773685,46.116198 C28.5773685,47.0030479 29.1665926,47.5942812 30.0504287,47.5942812 L39.1834021,47.5942812 C40.0672383,47.5942812 40.6564624,47.0030479 40.6564624,46.116198 L40.6564624,41.9775648 L51.11519,41.9775648 C51.9990261,41.9775648 52.5882502,41.3863315 52.5882502,40.4994815 C52.5882502,39.6126316 51.9990261,39.0213983 51.11519,39.0213983 L40.6564624,39.0213983 L40.6564624,36.8042734 C40.6564624,35.9174234 40.0672383,35.3261901 39.1834021,35.3261901 L30.0504287,35.3261901 C29.1665926,35.3261901 28.5773685,35.9174234 28.5773685,36.8042734 L28.5773685,39.0213983 L6.18685297,39.0213983 C5.59762888,39.0213983 4.86109876,38.8735899 4.41918069,38.430165 C3.53534455,37.8389317 2.94612046,36.8042734 2.94612046,35.6218068 L2.94612046,15.2242577 C2.94612046,14.7808327 3.24073251,14.6330244 3.53534455,14.6330244 L28.5773685,14.6330244 L28.5773685,30.1528987 C28.5773685,31.0397486 29.1665926,31.6309819 30.0504287,31.6309819 L39.1834021,31.6309819 C40.0672383,31.6309819 40.6564624,31.0397486 40.6564624,30.1528987 L40.6564624,14.6330244 L65.6984863,14.6330244 C65.9930983,14.6330244 66.2877104,14.928641 66.2877104,15.2242577 L66.2877104,32.5178319 C66.2877104,33.4046819 66.8769345,33.9959152 67.7607706,33.9959152 C68.6446068,33.9959152 69.2338308,33.4046819 69.2338308,32.5178319 L69.2338308,15.2242577 C69.2338308,13.3027494 67.6134646,11.6768578 65.6984863,11.6768578 L50.0840478,11.6768578 L50.0840478,11.2334328 C50.0840478,5.02548311 45.0756431,0 38.8887901,0 L30.3450408,0 C24.1581878,0 19.149783,5.02548311 19.149783,11.2334328 L19.149783,11.5290495 L3.53534455,11.5290495 C1.62036625,11.6768578 0,13.1549411 0,15.2242577 L0,35.7696151 C0,37.543315 0.736530115,39.3170149 2.06228432,40.4994815 L2.06228432,63.2619639 C2.06228432,67.1049804 5.15571081,70.2089552 8.98566741,70.2089552 L32.112713,70.2089552 C32.9965492,70.2089552 33.5857733,69.6177219 33.5857733,68.730872 C33.5857733,67.844022 32.8492431,67.1049804 32.112713,67.1049804 Z M31.5234889,38.2823566 L37.7103419,38.2823566 L37.7103419,44.6381147 L31.5234889,44.6381147 L31.5234889,38.2823566 Z M37.7103419,28.6748154 L31.5234889,28.6748154 L31.5234889,14.6330244 L37.7103419,14.6330244 L37.7103419,28.6748154 Z M21.9485974,11.2334328 C21.9485974,6.65137471 25.631248,2.95616654 30.1977347,2.95616654 L38.7414841,2.95616654 C43.4552768,2.95616654 47.1379274,6.65137471 47.1379274,11.2334328 L47.1379274,11.5290495 L21.9485974,11.5290495 L21.9485974,11.2334328 Z" id="Shape" fill="#E30613"></path>
                <path d="M97.7034293,52.6731051 C97.555144,52.3781095 97.110288,52.0831138 96.9620026,51.935616 L68.0463619,36.3008487 C67.6015059,36.0058531 67.0083645,36.0058531 66.7117938,36.3008487 C53.5143988,43.2332455 40.6135745,50.1656424 37.9444384,51.6406204 C37.6478677,51.7881182 37.4995824,52.0831138 37.351297,52.2306116 C37.0547264,52.3781095 37.0547264,52.6731051 37.0547264,52.8206029 L37.0547264,78.0427275 C37.0547264,78.485221 37.351297,79.0752122 37.7961531,79.22271 C37.9444384,79.3702078 66.7117938,97.36494 66.7117938,97.36494 C67.0083645,97.5124378 67.1566498,97.5124378 67.4532205,97.5124378 C67.7497912,97.5124378 68.0463619,97.36494 68.1946472,97.36494 L97.2585733,82.0251683 C97.7034293,81.7301727 98,81.2876793 98,80.697688 L98,53.2630963 C97.8517147,53.1155985 97.8517147,52.8206029 97.7034293,52.6731051 Z M67.3049352,39.2508048 L93.2548692,53.4105941 L86.2854584,57.0980392 L60.3355243,42.9382499 L67.3049352,39.2508048 Z M80.6506155,61.817969 C80.6506155,61.817969 80.6506155,61.817969 80.6506155,61.817969 C80.5023302,61.5229734 80.2057595,61.3754756 80.0574742,61.2279778 L53.2178281,46.7731929 L57.3698176,44.5607258 L84.9508903,59.6055019 L84.9508903,67.4228856 L80.7989009,69.6353526 L80.7989009,62.555458 C80.7989009,62.4079602 80.6506155,61.9654668 80.6506155,61.817969 Z M49.9555507,48.3956687 L76.2020554,62.555458 L67.3049352,67.4228856 L41.5032865,52.9681007 L49.9555507,48.3956687 Z M40.0204331,77.3052385 L40.0204331,55.3280656 L65.8220818,69.9303483 L65.8220818,93.5299971 L40.0204331,77.3052385 Z M68.7877886,93.6774949 L68.7877886,69.9303483 L77.8331941,65.0629207 L77.8331941,72.1428153 C77.8331941,72.7328066 78.1297648,73.1753 78.5746208,73.4702956 C79.0194768,73.7652912 79.6126182,73.7652912 80.0574742,73.4702956 L87.026885,69.6353526 C87.4717411,69.340357 87.7683117,68.8978636 87.7683117,68.3078724 L87.7683117,59.6055019 L94.8860079,55.770559 L94.8860079,79.960199 L68.7877886,93.6774949 Z" id="Shape" fill="#4A4A4A" fill-rule="nonzero"></path>
                <path d="M61.6058707,74.2008025 L44.7027315,64.5640185 C43.9613657,64.1259829 43.0717268,64.4180067 42.6269074,65.148066 C42.1820879,65.8781254 42.4786342,66.7541967 43.22,67.1922323 L60.1231392,76.8290163 C60.8645049,77.2670519 61.7541438,76.9750282 62.1989633,76.2449688 C62.6437827,75.5149094 62.3472364,74.6388381 61.6058707,74.2008025 Z" id="Path" fill="#4A4A4A" fill-rule="nonzero"></path>
                <path d="M61.6952273,81.0266731 L44.7133717,71.3898892 C43.9685535,70.9518535 43.0747716,71.2438773 42.6278807,71.9739367 C42.1809897,72.7039961 42.478917,73.5800674 43.2237352,74.018103 L60.2055908,83.6548869 C60.9504091,84.0929226 61.8441909,83.8008988 62.2910819,83.0708394 C62.5890092,82.34078 62.2910819,81.4647088 61.6952273,81.0266731 Z" id="Path" fill="#4A4A4A" fill-rule="nonzero"></path>
            </g>
        </g>
    </g>
</svg>