<?xml version="1.0" encoding="UTF-8"?>
<svg width="264px" height="88px" viewBox="0 0 264 88" version="1.1" xmlns="http://www.w3.org/2000/svg" xmlns:xlink="http://www.w3.org/1999/xlink">
    <!-- Generator: Sketch 48.2 (47327) - http://www.bohemiancoding.com/sketch -->
    <title>Rectangle 9</title>
    <desc>Created with Sketch.</desc>
    <defs></defs>
    <g id="главная" stroke="none" stroke-width="1" fill="none" fill-rule="evenodd">
        <g id="default-skin" transform="translate(9.000000, 15.000000)">
            <path d="M58.0018835,44.5 L58.0018835,48.268331 C51.6953142,49.1065038 48.8175182,54.0186795 48,58 C50.2189781,55.171167 53.5639273,52.9024591 58.0018835,52.9024591 L58.0018835,56.5 L64,50.5853951 L58.0018835,44.5 Z" id="Shape" fill="#000000" fill-rule="nonzero"></path>
            <g id="Group" transform="translate(4.000000, 0.000000)" fill="#000000" fill-rule="nonzero">
                <polygon id="Shape" points="0 14 0 9 2 9 2 12 5 12 5 14"></polygon>
                <polygon id="Shape" points="0 0 5 0 5 2 2 2 2 5 0 5"></polygon>
                <polygon id="Shape" points="18 0 18 5 16 5 16 2 15.2629743 2 13 2 13 0"></polygon>
                <polygon id="Shape" points="18 14 13 14 13 12 16 12 16 9 18 9"></polygon>
            </g>
            <g id="Group-4" transform="translate(48.000000, 0.000000)" fill="#000000" fill-rule="nonzero">
                <polygon id="Shape" transform="translate(2.500000, 11.500000) rotate(-180.000000) translate(-2.500000, -11.500000) " points="-4.4408921e-16 14 -4.4408921e-16 9 2 9 2 12 5 12 5 14"></polygon>
                <polygon id="Shape" transform="translate(2.500000, 2.500000) rotate(-180.000000) translate(-2.500000, -2.500000) " points="4.4408921e-16 -4.4408921e-16 5 -4.4408921e-16 5 2 2 2 2 5 4.4408921e-16 5"></polygon>
                <polygon id="Shape" transform="translate(15.500000, 2.500000) rotate(-180.000000) translate(-15.500000, -2.500000) " points="18 0 18 5 16 5 16 2 15.2629743 2 13 2 13 0"></polygon>
                <polygon id="Shape" transform="translate(15.500000, 11.500000) rotate(-180.000000) translate(-15.500000, -11.500000) " points="18 14 13 14 13 12 16 12 16 9 18 9"></polygon>
            </g>
            <polygon id="Rectangle-13" fill="#000000" fill-rule="nonzero" transform="translate(13.000000, 51.000000) rotate(-45.000000) translate(-13.000000, -51.000000) " points="14 50 22 50 22 52 14 52 14 60 12 60 12 52 4 52 4 50 12 50 12 42 14 42"></polygon>
            <polygon id="Shape-3" fill="#000000" fill-rule="nonzero" points="102.784738 50.0291574 101 48.5 104 45 94 45 94 43 104 43 101 39.5 102.784738 38.0320871 108 44"></polygon>
            <polygon id="Shape-4" fill="#000000" fill-rule="nonzero" transform="translate(145.000000, 44.030622) scale(-1, 1) translate(-145.000000, -44.030622) " points="146.784738 50.0291574 145 48.5 148 45 138 45 138 43 148 43 145 39.5 146.784738 38.0320871 152 44"></polygon>
            <g id="Group-2" transform="translate(138.000000, 1.000000)">
                <rect id="Rectangle-11" fill="#000000" fill-rule="nonzero" transform="translate(11.625000, 11.625000) scale(-1, 1) rotate(-45.000000) translate(-11.625000, -11.625000) " x="9.32690304" y="10.6250001" width="4.59619409" height="2"></rect>
                <path d="M5.5,11 C8.53756612,11 11,8.53756612 11,5.5 C11,2.46243388 8.53756612,0 5.5,0 C2.46243388,0 0,2.46243388 0,5.5 C0,8.53756612 2.46243388,11 5.5,11 Z" id="Oval-1" stroke="#000000" stroke-width="1.5"></path>
                <rect id="Rectangle-12" fill="#000000" fill-rule="nonzero" x="3" y="5" width="5" height="1"></rect>
            </g>
            <g id="Group-3" transform="translate(94.000000, 1.000000)">
                <polygon id="Rectangle-11" fill="#000000" fill-rule="nonzero" transform="translate(11.625000, 11.625000) rotate(-315.000000) translate(-11.625000, -11.625000) " points="9.32690296 10.625 9.32690296 12.625 13.923097 12.625 13.923097 10.625"></polygon>
                <path d="M5.5,11 C8.53756612,11 11,8.53756612 11,5.5 C11,2.46243388 8.53756612,0 5.5,0 C2.46243388,0 0,2.46243388 0,5.5 C0,8.53756612 2.46243388,11 5.5,11 Z" id="Oval-1" stroke="#000000" stroke-width="1.5"></path>
                <rect id="Rectangle-17" fill="#000000" fill-rule="nonzero" x="3" y="5" width="5" height="1"></rect>
                <rect id="Rectangle-16" fill="#000000" fill-rule="nonzero" transform="translate(5.500000, 5.500000) rotate(91.000000) translate(-5.500000, -5.500000) " x="3" y="5" width="5" height="1"></rect>
            </g>
        </g>
    </g>
</svg>