<?xml version="1.0" encoding="UTF-8"?>
<svg width="30px" height="25px" viewBox="0 0 30 25" version="1.1" xmlns="http://www.w3.org/2000/svg" xmlns:xlink="http://www.w3.org/1999/xlink">
    <title>icon/accept-green-large</title>
    <g id="Авторизация" stroke="none" stroke-width="1" fill="none" fill-rule="evenodd">
        <g id="авторизация/регистрация-успешна" transform="translate(-502.000000, -369.000000)" fill="#22A767" fill-rule="nonzero">
            <g id="Group-2" transform="translate(289.000000, 144.000000)">
                <g id="Group" transform="translate(0.000000, 120.000000)">
                    <g transform="translate(185.000000, 72.000000)" id="icon/accept-green-large">
                        <path d="M40.5266888,58 C39.7750875,58 39.2740199,57.7493592 38.7729524,57.2480776 L28.7516013,47.2224454 C27.7494662,46.2198821 27.7494662,44.7160373 28.7516013,43.7134741 C29.7537364,42.7109109 31.2569391,42.7109109 32.2590742,43.7134741 L40.276155,51.7339799 L53.5544452,33.9384827 C54.3060465,32.9359195 56.059783,32.6852787 57.0619181,33.4372011 C58.0640532,34.1891235 58.314587,35.9436091 57.5629856,36.9461723 L42.530959,56.9974368 C42.0298915,57.4987184 41.5288239,58 40.5266888,58 C40.5266888,58 40.5266888,58 40.5266888,58 Z"></path>
                    </g>
                </g>
            </g>
        </g>
    </g>
</svg>