<?xml version="1.0" encoding="UTF-8"?>
<svg width="5px" height="9px" viewBox="0 0 5 9" version="1.1" xmlns="http://www.w3.org/2000/svg" xmlns:xlink="http://www.w3.org/1999/xlink">
    <!-- Generator: Sketch 48.2 (47327) - http://www.bohemiancoding.com/sketch -->
    <title>Fill 181</title>
    <desc>Created with Sketch.</desc>
    <defs></defs>
    <g id="main:city-copy" stroke="none" stroke-width="1" fill="none" fill-rule="evenodd" transform="translate(-925.000000, -293.000000)">
        <g id="modal-copy" transform="translate(540.000000, 127.000000)" fill="#0A0B09">
            <g id="cols" transform="translate(30.000000, 136.000000)">
                <g id="1-copy-14" transform="translate(0.000000, 14.000000)">
                    <g id="Group-5">
                        <g id="arrows" transform="translate(355.000000, 16.000000)">
                            <path d="M0.217916667,1.1 L3.4925,4.37291667 L0.175208333,7.69166667 C0.066875,7.80416667 0,7.95625 0,8.125 C0,8.47083333 0.28,8.75 0.625,8.75 C0.793541667,8.75 0.946458333,8.68333333 1.05875,8.575 L1.05895833,8.575 L4.80895833,4.825 L4.80875,4.825 C4.92666667,4.71041667 5,4.55208333 5,4.375 C5,4.375 5,4.375 5,4.37291667 C5,4.19583333 4.92666667,4.03541667 4.80875,3.92291667 L4.80895833,3.92291667 L1.05895833,0.172916667 L1.0575,0.172916667 C0.945208333,0.0666666667 0.792916667,0 0.625,0 C0.28,0 0,0.279166667 0,0.625 C0,0.814583333 0.0845833333,0.983333333 0.217916667,1.1" id="Fill-181"></path>
                        </g>
                    </g>
                </g>
            </g>
        </g>
    </g>
</svg>