<?xml version="1.0" encoding="UTF-8"?>
<svg width="8px" height="5px" viewBox="0 0 8 5" version="1.1" xmlns="http://www.w3.org/2000/svg" xmlns:xlink="http://www.w3.org/1999/xlink">
    <title>icon/arrow</title>
    <g id="Symbols" stroke="none" stroke-width="1" fill="none" fill-rule="evenodd">
        <g id="header" transform="translate(-964.000000, -38.000000)" fill="#FFFFFF" fill-rule="nonzero">
            <g id="menu">
                <g transform="translate(603.000000, 24.000000)">
                    <g id="Group-Copy-2" transform="translate(255.000000, 0.000000)">
                        <path d="M110.015229,18.7023463 C110.170362,18.6857238 110.317054,18.6162838 110.435175,18.5035553 L113.606042,15.4902972 C113.821063,15.2992255 113.925118,14.9934569 113.877524,14.6925359 C113.829929,14.3916148 113.638247,14.1433394 113.377416,14.0447763 C113.116585,13.9462132 112.828037,14.0130181 112.624583,14.2190727 L109.944443,16.7667497 L107.264306,14.2190727 C107.060852,14.0130181 106.772304,13.9462132 106.511473,14.0447763 C106.250642,14.1433394 106.058959,14.3916148 106.011365,14.6925359 C105.963771,14.9934569 106.067826,15.2992255 106.282847,15.4902972 L109.453714,18.5035553 C109.608861,18.6514283 109.811494,18.7231658 110.015229,18.7023463 L110.015229,18.7023463 Z" id="icon/arrow"></path>
                    </g>
                </g>
            </g>
        </g>
    </g>
</svg>