<svg width="7" height="11" viewBox="0 0 7 11" fill="none" xmlns="http://www.w3.org/2000/svg">
<path d="M6.85066 6.30003C6.62542 6.09329 6.40463 6.09329 5.99964 6.49329L3.99594 8.5163V1.00629C3.99594 0.406287 4.10749 0.00244141 3.5 0.00244141C2.89251 0.00244141 3.00308 0.406287 3.00308 1.00629V8.5163L1.04697 6.49329C0.64198 6.09329 0.483107 6.0155 0.177874 6.30003C-0.127359 6.58456 -0.0264141 7.0501 0.378578 7.4501L2.83362 9.70612C3.03612 9.90612 3.23862 10.0061 3.54236 10.0061C3.8461 10.0061 4.0486 9.90612 4.2511 9.70612L6.66578 7.4501C7.07077 7.0501 7.0759 6.50677 6.85066 6.30003Z" fill="#818181"/>
</svg>
