<svg width="16" height="16" viewBox="0 0 16 16" fill="none" xmlns="http://www.w3.org/2000/svg">
<path fill-rule="evenodd" clip-rule="evenodd" d="M14 4.00002H13.7L12.1 0.900024C11.9 0.600024 11.6 0.400024 11.2 0.400024C11 0.400024 10.9 0.400024 10.7 0.500024L3.8 4.00002H2C0.9 4.00002 0 4.90002 0 6.00002V14C0 15.1 0.9 16 2 16H14C15.1 16 16 15.1 16 14V6.00002C16 4.90002 15.1 4.00002 14 4.00002ZM10.8 2.70002L11.4 4.00002H8.2L10.8 2.70002ZM2 14H14V6.00002H2V14Z" fill="#FAFAFA"/>
<circle cx="12" cy="10" r="1" fill="#FAFAFA"/>
</svg>
