<svg width="16" height="16" viewBox="0 0 16 16" fill="none" xmlns="http://www.w3.org/2000/svg">
<path fill-rule="evenodd" clip-rule="evenodd" d="M9 13.1012V8.41525L13 6.08225V10.7673L9 13.1012ZM3 6.08225L7 8.41525V13.1012L3 10.7673V6.08225ZM12.015 4.34125L8 6.68425L3.985 4.34125L8 1.99825L12.015 4.34125ZM6.992 0.27225L1.992 3.18825C1.378 3.54625 1 4.20525 1 4.91525V10.7673C1 11.4783 1.378 12.1362 1.992 12.4952L7.496 15.7052C7.808 15.8862 8.192 15.8862 8.504 15.7052L14.008 12.4952C14.622 12.1362 15 11.4783 15 10.7673V4.91525C15 4.20525 14.622 3.54625 14.008 3.18825L9.008 0.27225C8.385 -0.09075 7.615 -0.09075 6.992 0.27225Z" fill="white"/>
</svg>
