<svg width="93" height="70" viewBox="0 0 93 70" fill="none" xmlns="http://www.w3.org/2000/svg">
<g opacity="0.25">
<path fill-rule="evenodd" clip-rule="evenodd" d="M85.757 32.2C85.4695 31.9125 85.3258 31.625 85.182 31.3375C85.0383 31.05 84.8945 30.7625 84.607 30.475L55.857 1.725C55.282 1.15 54.707 0.575 54.132 0.575C53.557 0 52.407 0 51.832 0L11.582 0C8.13203 0 5.83203 2.3 5.83203 5.75L5.83203 86.25C5.83203 89.7 8.13203 92 11.582 92H80.582C84.032 92 86.332 89.7 86.332 86.25V34.5C86.332 33.925 86.332 32.775 85.757 32.2ZM57.582 19.5501L66.782 28.7501H57.582V19.5501ZM17.332 80.5H74.832V40.25H51.832C48.382 40.25 46.082 37.95 46.082 34.5V11.5L17.332 11.5V80.5Z" fill="#E4E4E4"/>
<path d="M28.832 40.25H34.582C38.032 40.25 40.332 37.95 40.332 34.5C40.332 31.05 38.032 28.75 34.582 28.75H28.832C25.382 28.75 23.082 31.05 23.082 34.5C23.082 37.95 25.382 40.25 28.832 40.25Z" fill="#E4E4E4"/>
<path d="M23.082 51.75C23.082 55.2 25.382 57.5 28.832 57.5H63.332C66.782 57.5 69.082 55.2 69.082 51.75C69.082 48.3 66.782 46 63.332 46H28.832C25.382 46 23.082 48.3 23.082 51.75Z" fill="#E4E4E4"/>
<path d="M63.332 63.25H28.832C25.382 63.25 23.082 65.55 23.082 69C23.082 72.45 25.382 74.75 28.832 74.75H63.332C66.782 74.75 69.082 72.45 69.082 69C69.082 65.55 66.782 63.25 63.332 63.25Z" fill="#E4E4E4"/>
</g>
</svg>
