<svg width="16" height="16" viewBox="0 0 16 16" fill="none" xmlns="http://www.w3.org/2000/svg">
<path fill-rule="evenodd" clip-rule="evenodd" d="M9 15C9 15.6 9.4 16 10 16C10.6 16 11 15.6 11 15V1C11 0.4 10.6 0 10 0C9.4 0 9 0.4 9 1V15ZM13 15C13 15.6 13.4 16 14 16C14.6 16 15 15.6 15 15V7C15 6.4 14.6 6 14 6C13.4 6 13 6.4 13 7V15ZM6 16C5.4 16 5 15.6 5 15V11C5 10.4 5.4 10 6 10C6.6 10 7 10.4 7 11V15C7 15.6 6.6 16 6 16ZM1 15C1 15.6 1.4 16 2 16C2.6 16 3 15.6 3 15V5C3 4.4 2.6 4 2 4C1.4 4 1 4.4 1 5V15Z" fill="white"/>
</svg>
