<svg width="90" height="82" viewBox="0 0 90 82" fill="none" xmlns="http://www.w3.org/2000/svg">
<path fill-rule="evenodd" clip-rule="evenodd" d="M74.0049 0.200195H15.9951C7.16538 0.210115 0.00992527 7.36556 0 16.1953V65.8047C0.00992527 74.6344 7.16538 81.7899 15.9951 81.7998H74.0049C82.8346 81.7899 89.9901 74.6344 90 65.8047V16.1953C89.9901 7.36556 82.8346 0.210115 74.0049 0.200195ZM86 65.8047C85.9926 72.4263 80.6265 77.7924 74.0049 77.7998H15.9951C9.37347 77.7924 4.0074 72.4263 4 65.8047V16.1953C4.0074 9.57365 9.37347 4.20759 15.9951 4.2002H74.0049C80.6265 4.20759 85.9926 9.57365 86 16.1953V65.8047ZM18.8301 41C18.8301 26.5467 30.5468 14.8301 45 14.8301C59.4465 14.8464 71.1536 26.5535 71.1699 41C71.1699 55.4532 59.4532 67.1699 45 67.1699C30.5468 67.1699 18.8301 55.4532 18.8301 41ZM45 63.1699C32.7559 63.1699 22.8301 53.2441 22.8301 41C22.8301 28.7559 32.7559 18.8301 45 18.8301C57.2441 18.8301 67.1699 28.7559 67.1699 41C67.1561 53.2384 57.2384 63.1561 45 63.1699ZM45 28.6465C46.1045 28.6464 46.9999 27.751 47 26.6465C46.9999 25.5419 46.1045 24.6465 45 24.6465C35.9723 24.6565 28.6563 31.9723 28.646 41C28.646 42.1046 29.5414 43 30.646 43C31.7506 43 32.646 42.1046 32.646 41C32.6539 34.1804 38.1804 28.6541 45 28.6465Z" fill="#7C7C7C"/>
</svg>
