<svg width="71" height="82" viewBox="0 0 71 82" fill="none" xmlns="http://www.w3.org/2000/svg">
<rect x="20.0439" y="27.9629" width="5.46153" height="10.9231" rx="2.73077" fill="black"/>
<rect x="45.4949" y="27.9629" width="5.46153" height="10.9231" rx="2.73077" fill="black"/>
<path d="M62.0158 81.9229C58.7403 81.9084 55.6321 80.4738 53.4959 77.9906C52.396 76.4801 50.6402 75.5866 48.7716 75.5866C46.9031 75.5866 45.1473 76.4801 44.0474 77.9906C41.9253 80.4943 38.8094 81.9378 35.5274 81.9378C32.2454 81.9378 29.1295 80.4943 27.0074 77.9906C25.9088 76.4691 24.1463 75.5678 22.2696 75.5678C20.3928 75.5678 18.6303 76.4691 17.5317 77.9906C15.3892 80.481 12.2695 81.9163 8.98438 81.9229V76.4614C10.8408 76.3733 12.5575 75.4497 13.654 73.9491C15.7812 71.454 18.8952 70.0168 22.174 70.0168C25.4528 70.0168 28.5668 71.454 30.694 73.9491C31.7926 75.4707 33.5551 76.372 35.4318 76.372C37.3086 76.372 39.0711 75.4707 40.1697 73.9491C42.2918 71.4455 45.4077 70.002 48.6897 70.002C51.9717 70.002 55.0876 71.4455 57.2097 73.9491C58.3321 75.4365 60.0712 76.3312 61.9339 76.3795L62.0158 81.9229Z" fill="black"/>
<path d="M62.0159 81.923V76.4614C62.9645 76.4617 63.8731 76.0793 64.5362 75.4009C65.1992 74.7224 65.5606 73.8052 65.5385 72.8568V35.5C65.5385 18.9102 52.0899 5.46153 35.5001 5.46153C18.9104 5.46153 5.4617 18.9102 5.4617 35.5V72.8568C5.43964 73.8052 5.80101 74.7224 6.46405 75.4009C7.12709 76.0793 8.03574 76.4617 8.98439 76.4614V81.923C6.58962 81.9158 4.29622 80.9556 2.61056 79.2546C0.924903 77.5536 -0.0143587 75.2516 0.000165982 72.8568V35.5C0.000165982 15.8939 15.894 0 35.5001 0C55.1062 0 71.0001 15.8939 71.0001 35.5V72.8568C71.0146 75.2516 70.0753 77.5536 68.3897 79.2546C66.704 80.9556 64.4106 81.9158 62.0159 81.923Z" fill="black"/>
</svg>
