<svg width="139" height="70" viewBox="0 0 139 70" fill="none" xmlns="http://www.w3.org/2000/svg">
<g opacity="0.25">
<path d="M130.312 8.6875H95.5625C90.35 8.6875 86.875 12.1625 86.875 17.375C86.875 22.5875 90.35 26.0625 95.5625 26.0625H109.463L86.875 48.65L75.5812 37.3562C72.1062 33.8813 66.8938 33.8813 63.4188 37.3562L28.6688 72.1063C25.1938 75.5813 25.1938 80.7937 28.6688 84.2687C30.4062 86.0062 32.1437 86.875 34.75 86.875C37.3562 86.875 39.0938 86.0062 40.8313 84.2687L69.5 55.6L80.7938 66.8937C84.2688 70.3687 89.4812 70.3687 92.9562 66.8937L121.625 38.225V52.125C121.625 57.3375 125.1 60.8125 130.312 60.8125C135.525 60.8125 139 57.3375 139 52.125V17.375C139 12.1625 135.525 8.6875 130.312 8.6875Z" fill="#E4E4E4"/>
</g>
</svg>
