<svg width="17" height="17" viewBox="0 0 17 17" fill="none" xmlns="http://www.w3.org/2000/svg">
<path fill-rule="evenodd" clip-rule="evenodd" d="M14.35 5.7C13.95 2.8 11.35 0.5 8.25 0.5C5.15 0.5 2.55 2.8 2.15 5.7C1.05 6.1 0.25 7.2 0.25 8.5V13.5C0.25 15.2 1.55 16.5 3.25 16.5H13.25C14.95 16.5 16.25 15.2 16.25 13.5V8.5C16.25 7.2 15.45 6.1 14.35 5.7ZM8.25 2.5C10.15 2.5 11.75 3.8 12.25 5.5H4.25C4.75 3.8 6.35 2.5 8.25 2.5ZM13.25 14.5C13.85 14.5 14.25 14.1 14.25 13.5V8.5C14.25 7.9 13.85 7.5 13.25 7.5H3.25C2.65 7.5 2.25 7.9 2.25 8.5V13.5C2.25 14.1 2.65 14.5 3.25 14.5H13.25Z" fill="white"/>
<path d="M8.25 8.5C7.15 8.5 6.25 9.4 6.25 10.5C6.25 11.2 6.65 11.9 7.25 12.2V12.5C7.25 13.1 7.65 13.5 8.25 13.5C8.85 13.5 9.25 13.1 9.25 12.5V12.2C9.85 11.9 10.25 11.2 10.25 10.5C10.25 9.4 9.35 8.5 8.25 8.5Z" fill="white"/>
</svg>
