<svg width="86" height="86" viewBox="0 0 86 86" fill="none" xmlns="http://www.w3.org/2000/svg">
<rect x="0.5" y="0.5" width="85" height="85" rx="42.5" fill="white" stroke="#FF8F0C"/>
<path d="M66 53H64.132V32H56V30.9543C56 26.556 51.9431 23 47.5533 23C47.4132 23 47.2264 23 47.0863 23.0468V23H27.9391C23.5492 23 20 26.556 20 30.9543V53V53.9358V59H35.0843V85H36H35.802L37 85.5V59H66V53ZM62.0305 53H41V44.9913L44.331 47.1436L47.7401 45.2252L60.0223 51.8694L60.9096 50.2318L49.6548 44.1491L61.0964 37.8324L60.1624 36.1948L47.7401 43.1197H47.6934V43.1665L44.5178 44.9445L41 42.6518V34H62.0305V53ZM54 30.9543V32H41V30.9543C41 27.5854 44.1909 25 47.5533 25C50.9157 25 54 27.5854 54 30.9543ZM22 30.9543C22 27.5854 24.5766 25 27.9391 25H42.4629C40.735 26.4505 39 28.5212 39 30.9543V53H22V30.9543ZM64.132 57H22V55H64.132V57Z" fill="#FF8F0C"/>
</svg>
