<svg width="96" height="70" viewBox="0 0 96 70" fill="none" xmlns="http://www.w3.org/2000/svg">
<g opacity="0.25">
<path fill-rule="evenodd" clip-rule="evenodd" d="M89.4 36C93.6 39.6 96 43.8 96 48C96 52.2 93.6 56.4 89.4 60C93.6 63.6 96 67.8 96 72C96 85.2 74.4 96 48 96C21.6 96 0 85.2 0 72C0 67.8 2.4 63.6 6.6 60C2.4 56.4 0 52.2 0 48C0 43.8 2.4 39.6 6.6 36C2.4 32.4 0 28.2 0 24C0 10.8 21.6 0 48 0C74.4 0 96 10.8 96 24C96 28.2 93.6 32.4 89.4 36ZM48 59.9999C71.4 59.9999 84 50.9999 84 47.9999C84 46.7999 82.2 44.9999 78 42.5999C70.2 46.1999 59.4 47.9999 48 47.9999C36.6 47.9999 25.8 46.1999 18 42.5999C13.8 44.9999 12 46.7999 12 47.9999C12 50.9999 24.6 59.9999 48 59.9999ZM48 12C71.4 12 84 21 84 24C84 27 71.4 36 48 36C24.6 36 12 27 12 24C12 21 24.6 12 48 12ZM12 71.9999C12 74.9999 24.6 83.9999 48 83.9999C71.4 83.9999 84 74.9999 84 71.9999C84 70.7999 81.6 68.9999 78 66.5999C70.2 70.1999 59.4 71.9999 48 71.9999C36.6 71.9999 25.8 70.1999 18 66.5999C13.8 68.9999 12 70.7999 12 71.9999Z" fill="#E4E4E4"/>
</g>
</svg>
