<?xml version="1.0" encoding="UTF-8"?>
<svg width="23px" height="30px" viewBox="0 0 23 30" version="1.1" xmlns="http://www.w3.org/2000/svg" xmlns:xlink="http://www.w3.org/1999/xlink">
    <title>no-photo</title>
    <g id="Symbols" stroke="none" stroke-width="1" fill="none" fill-rule="evenodd">
        <g id="table-row/selected" transform="translate(-155.000000, -15.000000)">
            <g id="row" transform="translate(0.000000, 6.000000)">
                <g id="no-photo" transform="translate(155.000000, 9.000000)">
                    <path d="M13.0491235,0 C13.4648256,0 13.8610399,0.177115412 14.13942,0.487383446 L22.6222113,9.9418653 C22.8654017,10.2129127 23,10.5649262 23,10.9298917 L23,28.5245902 C23,29.3394365 22.3427159,30 21.5319149,30 L1.46808511,30 C0.65728409,30 0,29.3394365 0,28.5245902 L0,1.47540984 C0,0.660563484 0.65728409,0 1.46808511,0 L13.0491235,0 Z M12.7758416,0.983606557 L1.95744681,0.983606557 C1.44148252,0.983606557 1.01877026,1.38485793 0.981407915,1.89380541 L0.978723404,1.96721311 L0.978723404,28.0327869 C0.978723404,28.5513255 1.37798275,28.9761468 1.88440354,29.0136956 L1.95744681,29.0163934 L21.0425532,29.0163934 C21.5585175,29.0163934 21.9812297,28.6151421 22.0185921,28.1061946 L22.0212766,28.0327869 L22.0212766,11.2311799 C22.0212766,11.1008576 21.9955329,10.9730027 21.9467009,10.8545881 L13.9499148,10.8547323 L13.949746,10.7894391 C13.5261262,10.6812784 13.212766,10.2954492 13.212766,9.83606557 L13.2134346,1.08739517 C13.0790075,1.01987017 12.9294267,0.983606557 12.7758416,0.983606557 Z M14.1914894,2.08032787 L14.1914894,9.87098361 L21.1433617,9.87098361 L14.1914894,2.08032787 Z" id="Combined-Shape" fill="#E6E6E6" fill-rule="nonzero"></path>
                    <path d="M0.541992187,20.9493408 L6.72519633,15.2354893 C7.11970464,14.897336 7.70450283,14.9265846 8.06439121,15.3024689 L12.3292957,19.7569349 L16.6802534,16.5108836 C17.0563446,16.2302991 17.5748061,16.2568233 17.9212333,16.5743713 L22.4748535,20.2993164" id="Path-4" stroke="#E6E6E6"></path>
                </g>
            </g>
        </g>
    </g>
</svg>