<svg width="67" height="85" viewBox="0 0 67 85" fill="none" xmlns="http://www.w3.org/2000/svg">
<path fill-rule="evenodd" clip-rule="evenodd" d="M66.9916 37.0965L66.9917 37.0983C66.9964 37.1672 66.9999 37.248 67 37.3385C67.0012 37.7286 66.93 38.2896 66.6482 38.9654L66.6479 38.9662C66.5763 39.1376 66.4733 39.383 66.3299 39.6559C66.3429 39.7322 66.3537 39.801 66.3619 39.8572C66.4097 40.1844 66.4309 40.5019 66.4309 40.8072C66.4283 42.3242 65.914 43.5209 65.523 44.2257C65.5653 44.314 65.596 44.4083 65.6012 44.5108C65.6192 44.8709 65.6281 45.2311 65.6281 45.5909C65.6256 51.1647 63.5037 56.6594 59.9564 60.7898C56.4126 64.9172 51.4024 67.6904 45.6678 67.6898C44.5388 67.6898 43.3823 67.5751 42.2077 67.3507C42.2092 67.6022 42.2106 67.8535 42.2119 68.1047C42.2167 69.0085 42.2215 69.9122 42.2368 70.8306C42.3134 75.418 42.4829 79.8772 42.7301 84.2013C42.7539 84.618 42.4337 84.9751 42.0149 84.9988C41.5961 85.0225 41.2373 84.7039 41.2136 84.2871C40.9653 79.9433 40.795 75.4638 40.7181 70.8557C40.6867 68.9817 40.6716 67.1292 40.6716 65.2989C40.6716 65.1219 40.6722 64.9458 40.6727 64.7696V64.7696V64.7695L40.6735 64.502L40.6741 64.2219C40.6744 64.0269 40.6748 63.832 40.6757 63.638C40.6778 63.2206 41.0196 62.884 41.439 62.886C41.8584 62.8881 42.1967 63.2282 42.1947 63.6456C42.1919 64.1947 42.1905 64.7458 42.1905 65.2989C42.1905 65.386 42.1916 65.4745 42.1926 65.563C42.1936 65.6454 42.1946 65.7278 42.1948 65.8089C43.3807 66.0566 44.5406 66.1782 45.6678 66.1782C50.896 66.1776 55.4862 63.6607 58.8021 59.8072C61.7271 56.4071 63.6239 51.9723 64.0264 47.4085C61.5103 46.9139 58.9941 46.4196 56.4778 45.9253C55.7759 48.9887 54.4927 51.5136 52.7377 53.3964C50.4383 55.8693 47.327 57.2047 43.8548 57.1996C41.8071 57.1992 39.6364 56.7343 37.4108 55.8067C37.1967 56.1791 36.8972 56.6567 36.4935 57.1896C35.3837 58.6544 33.5169 60.4922 30.6648 61.4232C29.4677 61.8128 28.3062 61.9721 27.2118 61.972C22.6525 61.965 19.2814 59.2454 18.8727 58.9121C17.3059 57.6129 16.359 56.1719 15.8053 55.1402C13.6272 55.9389 11.1472 57.2802 9.09614 59.5633C8.94638 59.73 8.74494 59.9602 8.47492 60.3431C8.20598 60.725 7.87256 61.2563 7.48292 62.004C6.70379 63.499 5.70178 65.8589 4.55598 69.5904C3.52116 72.9604 2.30896 77.6423 1.51189 83.4106C1.45478 83.8241 1.07159 84.1132 0.656073 84.0563C0.240561 83.9994 -0.0499793 83.6182 0.00717517 83.2047C0.817258 77.3411 2.05036 72.5778 3.10334 69.1487C4.85215 63.4557 6.29735 60.8025 7.23105 59.4756C7.54068 59.0353 7.7967 58.7412 7.96461 58.5549C11.5999 54.522 16.3392 53.2112 18.9717 52.7149C18.9946 52.7106 19.0168 52.7124 19.039 52.7143H19.039H19.039H19.0391H19.0391H19.0391H19.0392C19.0539 52.7156 19.0686 52.7169 19.0837 52.7163C19.6088 51.2504 19.7954 50.0584 19.7955 49.0965C19.7946 48.0708 19.5891 47.298 19.3356 46.6925C19.2535 46.4928 19.0522 46.1591 18.7256 45.7293C18.6207 45.5905 18.4985 45.4372 18.3681 45.277C18.3605 45.2803 18.3531 45.2841 18.3457 45.288L18.3321 45.2949C18.3283 45.2968 18.3244 45.2986 18.3205 45.3002C17.8972 45.4719 17.4516 45.5495 17.0124 45.5495C16.4188 45.549 15.835 45.4095 15.3076 45.1543C14.0752 44.55 13.1875 43.3394 13.0669 41.945C13.0595 41.8519 13.0558 41.7589 13.0558 41.6662C13.0589 41.0686 13.2128 40.483 13.4865 39.9589C13.1347 39.5899 12.7723 39.2103 12.3869 38.807L12.3328 38.7502C11.9012 38.2976 11.3956 37.7675 10.964 37.1141C10.515 36.435 10.1476 35.6064 10.0695 34.6234C10.0585 34.4876 10.0534 34.3537 10.0534 34.2218C10.0582 32.5317 10.8841 31.2312 11.3409 30.5236C11.9178 29.6375 12.5479 28.9554 13.2126 28.375C13.8318 27.8339 14.476 27.3792 15.1485 26.9045L15.2987 26.7984C18.8507 24.2928 20.7599 22.9332 22.154 21.3642L22.154 21.3641C23.1471 20.2478 24.4152 18.4506 25.254 15.5475C25.3342 15.2694 25.564 15.063 25.85 15.012C26.1361 14.961 26.4237 15.0752 26.5959 15.3082C27.0027 15.8628 28.2015 17.6041 28.2055 20.0669C28.2055 20.2692 28.1973 20.476 28.1797 20.6869C28.1233 21.3638 27.9777 21.9579 27.8038 22.4726C28.6481 22.2695 29.476 21.999 30.2695 21.6486C30.5017 21.5462 30.7715 21.5663 30.9857 21.7021C31.1998 21.8379 31.3321 22.0727 31.3368 22.3254L31.3381 22.4606C31.3302 24.5523 30.4534 26.4035 29.644 28.1125C29.5641 28.2813 29.4848 28.4487 29.407 28.6148L29.4066 28.6159C29.3569 28.7184 29.3292 28.7888 29.3229 28.8156L29.3339 28.8443C29.3526 28.8866 29.3947 28.9581 29.4535 29.0481L29.4537 29.0483C30.8027 31.1315 32.4557 33.0207 34.3434 34.6371C34.5354 34.8029 34.7662 35.0036 34.9744 35.2737C35.1786 35.5397 35.3776 35.9081 35.3788 36.3684L35.37 36.533L35.3699 36.5342C35.3344 36.8613 35.2003 37.1278 35.062 37.3302C34.9221 37.5339 34.7732 37.6878 34.6504 37.8146L34.6503 37.8146L34.6503 37.8147L34.6502 37.8147L34.6499 37.8151L34.6495 37.8155C34.0518 38.4273 33.4278 39.0134 32.7895 39.5837L33.761 41.4357C33.9529 41.8016 33.8136 42.2543 33.4485 42.4504C32.4645 42.9782 31.1793 43.4812 29.6988 43.4827C29.4237 43.4827 29.1424 43.4651 28.8564 43.4267C27.2742 43.2137 26.1296 42.4465 25.3688 41.8569L25.3711 41.8644L25.3731 41.8712C25.3746 41.8763 25.376 41.8814 25.3779 41.8868C25.5202 42.3132 25.7418 42.8079 26.0421 43.3006C26.644 44.2901 27.5541 45.2582 28.7638 45.7854C29.5004 46.1074 30.2372 46.223 30.9261 46.2233C32.3161 46.2254 33.4897 45.7386 33.8412 45.5791C34.0728 45.4754 34.3433 45.4944 34.558 45.6293C34.7728 45.7641 34.9064 45.9989 34.912 46.2515C34.9557 48.2044 34.9991 50.1569 35.0425 52.1096L35.0602 52.9089C38.1887 54.8045 41.1888 55.6887 43.8548 55.6881C46.942 55.683 49.5936 54.5386 51.6243 52.3682C53.6278 50.2209 55.0144 47.0298 55.4348 42.8984C55.434 42.8867 55.4315 42.8755 55.4291 42.8643C55.4258 42.8493 55.4226 42.8344 55.4232 42.8185C55.4477 42.192 55.473 41.5953 55.4991 41.0182L55.4499 40.9334L55.4499 40.9333L55.4497 40.933L55.4495 40.9326L55.4493 40.9323L55.4491 40.9319L55.449 40.9318C55.3748 40.8038 55.2997 40.6744 55.2221 40.5312L55.2223 40.5316C54.9778 40.0801 54.7812 39.6709 54.6406 39.2653C54.5004 38.8607 54.4179 38.4544 54.4182 38.0409C54.4181 37.7945 54.4474 37.548 54.5038 37.3045C54.6821 36.5521 55.1415 35.8561 55.8029 35.3475C55.9376 33.2145 56.0748 31.5332 56.2612 30.2174C56.4622 28.829 56.699 27.8398 57.1245 27.0869C57.4052 26.5889 57.8186 26.1854 58.333 25.9912L58.36 25.9814C58.4745 25.939 58.7837 25.8247 59.1917 25.8224C59.4413 25.8224 59.7494 25.8692 60.0499 26.0462C60.2675 26.1741 60.4395 26.3514 60.5623 26.537C60.686 26.7236 60.7661 26.9181 60.8227 27.1101C60.9338 27.4945 60.958 27.8771 60.9592 28.242C60.959 28.6168 60.9291 28.974 60.9049 29.2624L60.8988 29.3362C60.8205 30.2752 60.7402 31.4961 60.6814 32.9793C61.801 33.0798 63.3629 33.3304 64.6854 34.0551L64.6858 34.0553L64.6937 34.0597C65.0997 34.2868 65.933 34.7527 66.5036 35.7149L66.5039 35.7151L66.5214 35.7447L66.5317 35.7618L66.5324 35.7629L66.5324 35.763L66.5325 35.7631C66.589 35.8568 66.6824 36.012 66.7679 36.2064C66.8711 36.4404 66.9667 36.7419 66.9916 37.0965ZM12.2341 36.285C12.5843 36.8176 13.0426 37.3007 13.4878 37.7655C13.8276 38.1214 14.1461 38.4552 14.46 38.7843C14.6115 38.6663 14.7707 38.5565 14.9438 38.4632C15.3674 38.2393 15.8507 38.0981 16.3632 38.0971C16.5617 38.0971 16.7641 38.1191 16.9656 38.1675C16.9726 38.1692 16.9786 38.1727 16.9846 38.1761C16.9901 38.1793 16.9955 38.1825 17.0018 38.1843C17.088 38.1645 17.1809 38.1705 17.2651 38.2153C17.9066 38.5561 18.3507 38.9211 18.6467 39.2095L18.6464 39.2093C18.8251 39.389 19.001 39.5597 19.0825 39.5908L19.1061 39.5994L19.1094 39.5968L19.2059 39.4932L19.2053 39.4939C19.441 39.2322 19.6769 38.9705 19.9129 38.7089L19.0861 37.5577L18.4211 36.632C17.9225 35.9277 17.3514 35.0744 17.3422 34.1061C17.342 33.8588 17.3832 33.6055 17.4767 33.3579C17.6815 32.8141 18.0877 32.4293 18.5351 32.1528C18.9847 31.8748 19.4866 31.6915 19.9488 31.5414C20.3367 31.4166 20.7267 31.2951 21.1165 31.1736C23.6605 30.3809 26.1963 29.5908 28.0657 27.9017L28.0821 27.8673C28.7907 26.3808 29.4851 24.9241 29.7245 23.485C28.7205 23.8375 27.6828 24.094 26.6281 24.2409C26.3426 24.2806 26.0564 24.1542 25.8945 23.917C25.7326 23.6796 25.7201 23.3683 25.8625 23.119C26.1658 22.5882 26.5711 21.7053 26.6659 20.5622C26.68 20.3934 26.6866 20.2283 26.6866 20.0669C26.6886 19.0956 26.446 18.2469 26.1609 17.5832C25.295 19.8112 24.196 21.353 23.2902 22.3672L23.2903 22.3671C21.7462 24.0952 19.798 25.4722 16.3882 27.8824L16.3882 27.8824L16.1777 28.0312L16.0981 28.0873C15.3973 28.5816 14.775 29.0204 14.2152 29.5104C13.6338 30.0197 13.114 30.5823 12.6151 31.3463L12.615 31.3464C12.1803 32.006 11.5675 33.0455 11.5723 34.2218C11.5723 34.3143 11.5759 34.4078 11.5836 34.5026C11.6394 35.1825 11.8833 35.7505 12.2341 36.285ZM19.5823 44.3696C19.9331 43.9443 20.1735 43.4255 20.244 42.846C20.2906 42.4311 19.9905 42.0572 19.5738 42.0108C19.1569 41.9642 18.7811 42.2629 18.7345 42.6777C18.6891 43.1715 18.2677 43.6958 17.7469 43.9005C17.5217 43.992 17.2721 44.038 17.0124 44.038C16.6623 44.0384 16.2957 43.9524 15.973 43.7955C15.2148 43.4344 14.6377 42.6256 14.581 41.8242L14.5747 41.6663C14.568 40.9133 15.0207 40.1242 15.658 39.7973L15.6584 39.7971C15.8863 39.6753 16.1414 39.6077 16.3632 39.6087C16.4496 39.6087 16.5313 39.6181 16.6083 39.6367C16.9636 39.7223 17.3082 39.5354 17.4596 39.2196C17.7367 39.4099 17.9554 39.5939 18.1156 39.7498L18.116 39.7501C18.1432 39.7764 18.1715 39.8046 18.2011 39.8341C18.2876 39.9202 18.3848 40.0171 18.4975 40.1077C18.6475 40.225 18.8401 40.3534 19.1122 40.3573L19.2555 40.3434C19.4071 40.3142 19.5279 40.2372 19.6072 40.1677C19.6689 40.1138 19.7129 40.0638 19.7447 40.0277C19.7543 40.0167 19.7628 40.0071 19.7703 39.9989L19.7709 39.9982C20.0742 39.6615 20.3778 39.3246 20.6814 38.9882C20.8002 38.8566 20.8112 38.6599 20.7078 38.516L19.9263 37.4279L19.0391 36.1925C18.549 35.5199 18.0924 34.7476 18.1017 34.1061C18.1019 33.9406 18.1282 33.7821 18.1879 33.6234L18.1879 33.6232C18.3162 33.2828 18.5759 33.0188 18.9366 32.7943C19.2951 32.5715 19.7436 32.402 20.1837 32.2602C20.5948 32.1264 21.0118 31.9964 21.4314 31.8655C23.6474 31.1743 25.9363 30.4604 27.8317 29.0605C27.8588 29.2135 27.8988 29.3547 27.9499 29.4673C28.0251 29.6315 28.1073 29.7591 28.1732 29.8613L28.1771 29.8674C29.6056 32.0732 31.3539 34.0713 33.3525 35.7828C33.5249 35.9291 33.6798 36.075 33.7662 36.1897C33.8565 36.3085 33.8611 36.3633 33.8599 36.3685L33.8596 36.3731C33.8595 36.3762 33.8549 36.4082 33.8054 36.4811C33.7575 36.5524 33.6695 36.6508 33.56 36.7622C32.8521 37.4868 32.1134 38.1823 31.3466 38.8459C31.0819 39.0751 31.0094 39.4564 31.1718 39.7659L32.0534 41.4467C31.3454 41.7509 30.5423 41.9724 29.6988 41.9712C29.4889 41.9712 29.2759 41.9577 29.0597 41.9287C27.9959 41.7854 27.1709 41.3079 26.5182 40.8297C26.3032 40.6721 26.1099 40.5161 25.9299 40.3708L25.9298 40.3707L25.9296 40.3706L25.9286 40.3698L25.9285 40.3697L25.9285 40.3696C25.8356 40.2947 25.7464 40.2227 25.6596 40.1549C25.5304 40.0546 25.4079 39.9626 25.2636 39.878L25.2438 39.8672C25.1022 39.7903 24.936 39.6999 24.6484 39.6925C24.4707 39.6884 24.2429 39.7549 24.0819 39.8831C23.8535 40.0636 23.7689 40.2717 23.7194 40.4377C23.6716 40.6086 23.6593 40.7639 23.6586 40.9238C23.661 41.3498 23.7583 41.8242 23.9366 42.364C24.2062 43.168 24.6687 44.0963 25.3584 44.968C26.0475 45.8374 26.9698 46.6512 28.1526 47.1691C29.1109 47.5885 30.0665 47.7351 30.9261 47.7349C31.9128 47.7337 32.772 47.5448 33.4171 47.3467C33.4668 49.5744 33.5164 51.8019 33.5659 54.0298C33.358 54.3644 32.818 55.1579 31.9406 55.9489C30.8364 56.9438 29.2402 57.9182 27.0862 58.0573C26.9146 58.0683 26.7435 58.0738 26.5729 58.0738C23.9564 58.0743 21.4823 56.776 19.9483 54.6151C20.9434 52.3917 21.3146 50.5732 21.3144 49.0965C21.3153 47.8657 21.0596 46.875 20.7369 46.1094C20.5677 45.7111 20.3049 45.3061 19.9393 44.8205C19.8323 44.6792 19.7081 44.5252 19.5823 44.3696ZM30.4287 60.7049C33.2594 59.7873 35.0647 57.884 36.0812 56.4682C36.3421 56.1047 36.5514 55.7758 36.7116 55.5019C36.1589 55.2482 35.6037 54.9692 35.046 54.6573L35.0372 54.6523C35.0293 54.6477 35.0213 54.6429 35.0134 54.6381L35.0123 54.6374L34.9975 54.6285L34.9808 54.6188C34.8489 54.8517 34.2028 55.9446 32.9615 57.068C31.6891 58.2202 29.7633 59.4006 27.184 59.5657C26.9798 59.5788 26.776 59.5853 26.5729 59.5853C23.3009 59.5847 20.2234 57.9013 18.4365 55.1126C18.2959 54.8932 18.2783 54.6203 18.3895 54.3849L18.3917 54.3799C17.8255 54.5086 17.1996 54.6739 16.5322 54.8903C17.062 55.8545 17.9429 57.1578 19.3588 58.3314C19.7042 58.6231 22.9672 61.2233 27.2118 61.2163C28.2325 61.2161 29.3114 61.0684 30.4287 60.7049ZM63.9449 35.3749C64.0603 35.4388 64.1902 35.5171 64.3237 35.6047C63.5668 37.2971 62.9345 38.5659 62.6179 39.0917L62.6172 39.0929C62.5698 39.1742 62.4657 39.3333 62.2867 39.4252L62.2863 39.4253C62.2656 39.4381 62.0862 39.5217 61.9123 39.5195C61.8219 39.5189 61.738 39.5019 61.6525 39.4525C61.4865 39.3577 61.3652 39.1492 61.3653 38.9023L61.376 38.7751C61.3808 38.7467 61.3777 38.7194 61.3745 38.6921L61.3727 38.6753C61.4985 38.3732 61.6247 38.0703 61.7758 37.7552C62.2644 36.7365 62.7994 35.8508 63.3273 35.0891C63.5442 35.1747 63.7543 35.2672 63.9449 35.3749ZM61.0904 37.4296C61.5602 36.4501 62.0713 35.593 62.5798 34.8426C62.2487 34.7515 61.9149 34.6785 61.5874 34.6218L59.6414 37.4893C59.64 37.4972 59.6394 37.5052 59.6388 37.5131C59.6377 37.5265 59.6366 37.5399 59.6318 37.5532C59.582 37.6895 59.5604 37.8216 59.5604 37.9453C59.5582 38.3345 59.7799 38.6254 59.9828 38.6902L60.1374 38.7157C60.298 38.7223 60.4887 38.6294 60.5907 38.5701C60.741 38.1994 60.9029 37.8205 61.0904 37.4296ZM57.9656 29.2703C58.1081 28.5971 58.2776 28.1223 58.4434 27.8368C58.6147 27.5476 58.7405 27.4591 58.8816 27.4008C58.9152 27.385 59.0799 27.3316 59.1916 27.334L59.274 27.3456L59.2743 27.3458L59.296 27.3719C59.3231 27.41 59.3692 27.5162 59.3972 27.6729C59.4266 27.8286 59.4406 28.029 59.4403 28.242C59.4405 28.5549 59.412 28.8925 59.3866 29.192L59.3866 29.1921V29.1922L59.385 29.2109L59.385 29.2111C59.2921 30.3254 59.1949 31.8001 59.1351 33.6557C59.1334 33.7069 59.1452 33.7543 59.1569 33.8018C59.1601 33.8147 59.1632 33.8276 59.1662 33.8405C58.8134 34.0254 58.4418 34.2398 58.0564 34.4967L58.0566 34.4965C57.8393 34.6411 57.5982 34.8154 57.3465 35.0105C57.5183 32.3797 57.7014 30.5 57.9656 29.2703ZM56.9426 45.2463C59.3218 45.7137 61.701 46.181 64.0802 46.6487C64.0984 46.2964 64.1093 45.9438 64.1091 45.5909C64.1091 45.5045 64.1062 45.4181 64.1033 45.3317L64.1032 45.33C64.1014 45.277 64.0997 45.224 64.0986 45.171L62.24 44.8011C60.4461 44.444 58.6521 44.087 56.8583 43.7298C56.7941 44.2263 56.7167 44.7112 56.6253 45.184L56.9426 45.2463ZM64.1801 43.5215L57.5703 42.33L56.9681 42.2101C56.9869 41.7507 57.0061 41.3005 57.0261 40.8695C57.0325 40.7298 56.9981 40.5857 56.9291 40.4638C56.8803 40.3776 56.8319 40.294 56.7849 40.2126L56.7846 40.2122C56.7047 40.0741 56.6284 39.9422 56.5592 39.8142L56.559 39.8138C56.3358 39.4026 56.1758 39.0605 56.0769 38.7734C55.9776 38.4851 55.9375 38.2569 55.9371 38.0409C55.9373 37.9113 55.9517 37.7836 55.9841 37.6433C56.0701 37.252 56.3525 36.8232 56.7298 36.5341C56.7335 36.5319 56.7372 36.5298 56.7409 36.5278C56.7434 36.5264 56.7459 36.525 56.7483 36.5237C56.7691 36.5122 56.7898 36.5008 56.8074 36.4834C56.8133 36.4777 56.819 36.4724 56.8248 36.4672C56.83 36.4625 56.8351 36.4578 56.8404 36.4527C56.8502 36.4463 56.8594 36.4392 56.8686 36.4318C56.8713 36.4297 56.874 36.4275 56.8767 36.4253C56.8916 36.4133 56.9065 36.4012 56.923 36.3918C57.0356 36.3261 57.1261 36.2339 57.1906 36.1261C57.6583 35.7065 58.1021 35.3754 58.4788 35.1248L58.479 35.1247C58.9177 34.8322 59.3383 34.5971 59.7286 34.4025C59.7404 34.4052 59.7519 34.4086 59.7632 34.4122C59.7673 34.4135 59.7713 34.4148 59.7754 34.4161C59.8027 34.4248 59.8299 34.4336 59.8598 34.4349C60.1042 34.444 60.4113 34.4651 60.7522 34.5021C59.807 35.8951 58.8618 37.2877 57.9166 38.6803C57.7993 38.8532 57.845 39.0881 58.0188 39.2049C58.1926 39.3218 58.4286 39.2762 58.546 39.1033L58.9222 38.549C59.0673 38.9379 59.3392 39.2583 59.7266 39.4017C59.8671 39.4518 60.0072 39.4716 60.1374 39.4716C60.3541 39.4679 60.533 39.416 60.6865 39.3564C60.7866 39.6634 60.9799 39.935 61.2687 40.1047C61.4869 40.2323 61.7162 40.2758 61.9123 40.2752C62.2781 40.273 62.5459 40.1407 62.6282 40.1L62.637 40.0957C62.6489 40.0895 62.6588 40.0825 62.6686 40.0754C62.6765 40.0697 62.6844 40.064 62.6934 40.0588C62.9083 40.3851 63.2226 40.637 63.6152 40.7282C63.7199 40.752 63.8258 40.7633 63.9309 40.7633C64.2743 40.7618 64.607 40.6431 64.8848 40.4349C64.8878 40.4761 64.8918 40.5179 64.8958 40.5596C64.9039 40.6435 64.9119 40.7273 64.9119 40.8073C64.9146 41.9885 64.4919 42.9624 64.1801 43.5215ZM64.8794 39.1436C65.0386 38.8759 65.1553 38.6028 65.2442 38.3885C65.4486 37.8926 65.4799 37.5568 65.481 37.3385L65.4763 37.2025C65.4656 37.0542 65.4273 36.9287 65.3764 36.8125C65.3301 36.7072 65.2767 36.6183 65.217 36.519C65.21 36.5073 65.2029 36.4955 65.1957 36.4835L65.1959 36.4837C65.1138 36.3457 65.0213 36.2264 64.925 36.117C64.2017 37.7216 63.6081 38.9147 63.2703 39.4785C63.2659 39.486 63.2562 39.5003 63.2507 39.5093C63.365 39.7632 63.5674 39.9447 63.784 39.9913L63.9309 40.0075C64.2562 40.0106 64.6376 39.7665 64.7787 39.3436C64.7952 39.2951 64.821 39.2525 64.8529 39.2162C64.8577 39.2059 64.8607 39.1951 64.8638 39.1843C64.8678 39.1703 64.8718 39.1563 64.8794 39.1436Z" fill="black"/>
<path d="M59.4998 25.4999L59.5 25.5L59.5002 25.5002L59.4998 25.4999Z" fill="black"/>
<path d="M62.5004 39.4993L62.5001 39.4997L62.4996 39.5007L62.5004 39.4993Z" fill="black"/>
<path d="M15.5552 68.0731C15.1653 67.8957 14.698 68.0523 14.5114 68.423C13.5832 70.2667 12.663 72.3123 11.812 74.5553C10.4992 78.0147 9.61621 81.2444 9.01525 84.1101C8.93077 84.5132 9.20585 84.9051 9.62968 84.9855C10.0536 85.0659 10.4657 84.8043 10.5503 84.4012C11.0389 82.0707 11.7348 79.4842 12.6881 76.7372C12.7102 79.2454 12.7322 81.7535 12.7541 84.2618C12.7577 84.6728 13.111 85.0032 13.5432 84.9998C13.9754 84.9964 14.3228 84.6605 14.3192 84.2495C14.2864 80.4891 14.2535 76.7287 14.2203 72.9687C14.2197 72.9172 14.1991 72.8723 14.1881 72.8239C14.753 71.4922 15.3354 70.2332 15.9231 69.0657C16.1097 68.695 15.945 68.2506 15.5552 68.0731Z" fill="black"/>
<path d="M23.4998 39.5002L23.5001 39.5L23.5002 39.4998L23.4998 39.5002Z" fill="black"/>
<path d="M14.4998 38.5002L14.5 38.5L14.5002 38.4999L14.4998 38.5002Z" fill="black"/>
<path fill-rule="evenodd" clip-rule="evenodd" d="M25.5119 34.2919L25.5122 34.2921C25.8315 34.5867 25.9839 35.0654 25.9994 35.633C26.0259 36.6033 25.1776 37.384 24.6043 36.7979C24.4627 36.653 24.3438 36.5085 24.2438 36.3115C24.1456 36.1544 24.0687 35.9731 24.0321 35.7792C23.993 35.5725 23.9919 35.3748 24.0166 35.1892C24.0413 34.7863 24.1798 34.4122 24.4546 34.1783C24.7012 33.9684 24.9594 33.9568 25.1923 34.076C25.2578 34.0975 25.3204 34.1306 25.3889 34.1757C25.4196 34.1959 25.4446 34.2225 25.4697 34.2491C25.4834 34.2637 25.4972 34.2783 25.5119 34.2919ZM24.5441 34.2124C24.4672 34.2438 24.4658 34.2379 24.6794 34.1199C24.6323 34.146 24.5879 34.1787 24.5441 34.2124Z" fill="black"/>
<path d="M21.2782 33.9783C21.4924 34.0507 21.7249 33.9363 21.7975 33.7228C22.0358 33.0182 22.5814 32.4062 23.2555 32.0871C23.6315 31.9081 24.0531 31.8161 24.4746 31.8162C24.8074 31.8162 25.1394 31.8734 25.4484 31.9872C25.6606 32.0653 25.8961 31.9572 25.9745 31.7458C26.0529 31.5345 25.9445 31.2998 25.7323 31.2216C25.3284 31.073 24.9012 31.0001 24.4746 31C23.9345 31.0002 23.3944 31.1167 22.9026 31.3505C22.0233 31.7703 21.3362 32.5411 21.0218 33.4608C20.9492 33.6742 21.064 33.9059 21.2782 33.9783Z" fill="black"/>
<path d="M47.5001 25.4998L47.5 25.5L47.4999 25.5002L47.5001 25.4998Z" fill="black"/>
<path fill-rule="evenodd" clip-rule="evenodd" d="M37.4827 14.4034C37.8383 15.2817 38.3285 15.8263 38.7825 16.3198L38.8232 16.3643C39.2676 16.8502 39.7113 17.3354 40.2313 18.2478V18.2477C40.7697 19.1967 41.075 20.0749 41.2612 20.7451C40.9826 20.8225 40.7626 21.0571 40.7176 21.3657C40.6455 21.8613 40.5993 22.4074 40.5992 22.9711C40.6019 23.9715 40.7372 25.0312 41.1937 25.9573L41.1937 25.9574V25.9574C41.4694 26.5102 41.8663 26.9982 42.3564 27.3658C42.8455 27.7319 43.4374 27.9783 44.0828 27.9987L44.1679 28C44.9695 27.9995 45.6886 27.6496 46.2459 27.1457C46.8053 26.6389 47.224 25.9735 47.4571 25.2439C47.6539 24.6245 47.7269 23.9942 47.7268 23.3796C47.7263 22.5731 47.603 21.7898 47.4535 21.0555C47.369 20.6421 46.9851 20.3765 46.5907 20.4588C46.5892 20.4591 46.5879 20.4597 46.5866 20.4603L46.5846 20.4614L46.5833 20.4622L46.5806 20.4635L46.5787 20.464C46.6429 19.5422 46.8482 18.3778 47.4338 17.1954C47.7589 16.5429 48.0253 16.2103 48.3265 15.8342L48.3801 15.7672C48.7031 15.3678 49.0761 14.8797 49.3857 14.0994L49.3856 14.0997C49.4483 13.9436 49.6044 13.555 49.7406 13.0309C49.8774 12.5045 49.9997 11.8321 50 11.0745C50.0006 10.2184 49.8403 9.24612 49.3568 8.29527C48.6724 6.94798 47.6059 6.15718 46.6816 5.704C45.7551 5.24908 44.9447 5.11133 44.6842 5.07113C44.3699 5.02336 44.0526 5 43.7353 5C41.3541 5.00413 38.929 6.30062 37.7351 8.66042C37.235 9.65816 37.0005 10.7651 37 11.8446C37.0004 12.7377 37.1607 13.6148 37.4828 14.4036L37.4827 14.4034ZM46.061 24.7532L46.0609 24.7535C45.9165 25.2129 45.6326 25.6612 45.2874 25.9707C44.94 26.2832 44.5522 26.4524 44.1679 26.4518L44.1264 26.4512C43.8154 26.4417 43.4997 26.3208 43.2094 26.104C43.1726 26.0766 43.1397 26.0422 43.1066 26.0077C43.0862 25.9863 43.0657 25.9649 43.0442 25.9451C44.0645 25.551 45.0758 25.1325 46.0761 24.6852C46.0729 24.6958 46.0709 24.7069 46.0689 24.718C46.0667 24.73 46.0646 24.7419 46.061 24.7532ZM42.546 25.3136C43.7875 24.84 45.0173 24.3335 46.2288 23.7806C46.2316 23.7423 46.2349 23.7043 46.2383 23.6663C46.2465 23.572 46.2548 23.4777 46.2548 23.3796C46.2549 23.2236 46.2398 23.0616 46.2246 22.8995L46.2246 22.8995C46.2205 22.8547 46.2163 22.8099 46.2124 22.7653C44.8746 23.2732 43.5176 23.7047 42.1624 24.1184C42.232 24.5393 42.3406 24.9278 42.498 25.2396L41.9249 25.555H41.925L42.498 25.2397C42.5049 25.2536 42.5141 25.2662 42.5232 25.2789C42.5313 25.2902 42.5394 25.3015 42.546 25.3136ZM42.0713 22.9711C42.0712 22.7219 42.0832 22.4742 42.1025 22.2326L42.4666 22.2203C43.2393 22.1941 44.3137 22.1576 45.1996 22.1171C45.427 22.1067 45.64 22.0961 45.835 22.0853C44.6051 22.5469 43.3499 22.949 42.0853 23.3358C42.0838 23.3028 42.0821 23.2698 42.0803 23.2369L42.0803 23.2367C42.0757 23.1484 42.071 23.0602 42.0713 22.9711ZM39.037 9.3831L39.0369 9.38315C38.6587 10.1351 38.4716 11.002 38.4721 11.8446C38.4717 12.541 38.5998 13.218 38.835 13.7918L38.8351 13.7919C39.0955 14.4206 39.3848 14.7436 39.8426 15.2456L39.8598 15.2643C40.3113 15.756 40.8934 16.39 41.4953 17.4543L41.4953 17.4543C42.2121 18.7178 42.5723 19.877 42.7677 20.661C43.0026 20.653 43.2538 20.6444 43.5132 20.635C44.0413 20.6161 44.5994 20.5945 45.0965 20.572C45.1523 19.4765 45.3755 18.0023 46.128 16.4807C46.5226 15.6786 46.9168 15.189 47.2254 14.8058C47.2353 14.7935 47.2451 14.7813 47.2548 14.7693C47.5682 14.375 47.7828 14.1026 48.0295 13.4971L48.0296 13.497C48.0867 13.3549 48.2089 13.0506 48.3209 12.6218C48.4322 12.1952 48.5282 11.6547 48.528 11.0745C48.5274 10.4158 48.4079 9.71329 48.0585 9.0249L48.0584 9.02468C47.5662 8.05498 46.7923 7.4685 46.0583 7.10658C45.3266 6.74639 44.6611 6.63127 44.4737 6.60339C44.231 6.56655 43.984 6.54821 43.7353 6.54821C41.8541 6.54414 39.9179 7.60805 39.037 9.3831Z" fill="black"/>
<path d="M40.3098 12.9952C40.5093 13.0292 40.6959 12.8784 40.7267 12.6584C40.7577 12.4282 40.832 12.2358 40.9299 12.138L41.1301 12.0453L41.1971 12.0625C41.2289 12.0777 41.307 12.1742 41.4139 12.3137C41.4691 12.3822 41.535 12.4607 41.6284 12.5335C41.7205 12.6058 41.8483 12.6698 41.9929 12.6816L42.0492 12.684C42.2761 12.6852 42.46 12.559 42.5741 12.4376C42.7485 12.252 42.8481 12.0524 42.9393 11.9263L43.0288 11.8193C43.061 11.8523 43.122 11.9577 43.2041 12.0969C43.2913 12.2361 43.4188 12.4367 43.6713 12.5357L43.6715 12.5359C43.7487 12.5649 43.8288 12.5785 43.9052 12.5785C44.099 12.5772 44.257 12.4987 44.3824 12.4107C44.5086 12.321 44.6093 12.2155 44.6932 12.1151L44.6934 12.1149C44.7777 12.0124 44.8548 11.9213 44.9157 11.8703L45.0206 11.8129H45.0214L45.0726 11.8366L45.1551 11.938C45.2084 12.0348 45.2431 12.1944 45.2749 12.3971C45.3109 12.6161 45.5011 12.7613 45.6997 12.7216C45.8983 12.6819 46.0301 12.4722 45.9941 12.2533C45.9588 12.0485 45.9222 11.792 45.7863 11.5316L45.786 11.5309C45.713 11.3945 45.6154 11.2715 45.4889 11.1743C45.3633 11.0781 45.2027 11.0072 45.0214 11.0072H45.0206C44.7886 11.0072 44.6009 11.1191 44.4688 11.2326C44.3344 11.3481 44.2361 11.4731 44.1544 11.5706L43.9877 11.7325L43.906 11.7722L43.9008 11.7684C43.8751 11.7548 43.8012 11.6358 43.7063 11.4707C43.6564 11.3893 43.5968 11.2961 43.5059 11.2061C43.4167 11.1166 43.2849 11.0322 43.131 11.0084L43.0285 11C42.8006 10.9991 42.6194 11.1287 42.5082 11.2494C42.338 11.4343 42.24 11.6315 42.1488 11.756L42.0494 11.8727L42.049 11.873L42.0247 11.8528C41.9896 11.8188 41.9357 11.747 41.8659 11.6575C41.7951 11.5692 41.7064 11.4593 41.5684 11.3684L41.5683 11.3683C41.4288 11.2775 41.2748 11.2393 41.1301 11.2396C40.8621 11.242 40.6181 11.3575 40.4286 11.5516C40.1553 11.8394 40.0512 12.2097 40.0043 12.5357C39.9736 12.7556 40.1103 12.9613 40.3098 12.9952Z" fill="black"/>
<path d="M53.4212 9.99789C54.1661 9.91971 54.912 9.84191 55.6579 9.76411C55.8675 9.74221 56.0197 9.5539 55.9979 9.34351C55.9762 9.13308 55.7886 8.98018 55.579 9.00209C54.8331 9.07989 54.0872 9.15768 53.3419 9.23592C53.1324 9.25788 52.9802 9.44625 53.0021 9.65668C53.024 9.86713 53.2116 10.0199 53.4212 9.99789Z" fill="black"/>
<path d="M49.6978 3.87118H49.6978C50.1067 3.41719 50.5157 2.96286 50.924 2.5085C51.0512 2.36694 51.015 2.16733 50.8432 2.06259C50.6715 1.95785 50.4291 1.9876 50.302 2.12912C49.894 2.58322 49.4851 3.03735 49.0762 3.49121C48.9489 3.6326 48.9848 3.83229 49.1564 3.93721C49.328 4.04209 49.5704 4.01256 49.6978 3.87118Z" fill="black"/>
<path d="M41.6707 2.98897C41.8979 2.93446 42.0407 2.69379 41.9897 2.4513C41.8925 1.98946 41.8433 1.51551 41.8433 1.04181C41.8433 0.857267 41.8508 0.672862 41.8658 0.489095C41.886 0.241492 41.7142 0.0233055 41.4823 0.00172584C41.2502 -0.0198538 41.0458 0.163446 41.0256 0.410996C41.0084 0.620878 41 0.831343 41 1.04181C41 1.58201 41.056 2.1217 41.1668 2.64848C41.2178 2.89097 41.4435 3.04342 41.6707 2.98897Z" fill="black"/>
<path d="M34.2633 5.7071C34.7135 5.80257 35.1637 5.89799 35.6135 5.99346C35.7896 6.03082 35.96 5.90431 35.994 5.7109C36.0281 5.51744 35.9129 5.33029 35.7367 5.29294C35.2868 5.19747 34.8367 5.10199 34.3865 5.00652C34.2103 4.96922 34.04 5.09573 34.006 5.28918C33.9719 5.48264 34.0872 5.66973 34.2633 5.7071Z" fill="black"/>
<path d="M53.5279 14.0101C53.2895 13.955 53.0571 14.1306 53.0089 14.4021C52.9605 14.6736 53.1146 14.9382 53.353 14.9932C54.0506 15.1542 54.7231 15.4702 55.317 15.9169C55.5199 16.0696 55.7931 16.0059 55.9271 15.7747C56.0611 15.5436 56.0051 15.2325 55.8022 15.0798C55.1129 14.5616 54.3371 14.197 53.5279 14.0101Z" fill="black"/>
<path d="M51.0322 18.5257C51.3262 19.1986 51.8727 19.728 52.5322 19.9783C52.7143 20.0471 52.9146 19.9466 52.9796 19.7538C53.0445 19.5611 52.9496 19.3491 52.7675 19.2803C52.2907 19.1015 51.8786 18.7022 51.668 18.2156C51.5872 18.0298 51.3793 17.9485 51.2037 18.0341C51.0281 18.1197 50.9513 18.3398 51.0322 18.5257Z" fill="black"/>
<path d="M32.3878 13.9933C32.8378 13.8966 33.2879 13.7995 33.7377 13.703C33.9138 13.6651 34.0285 13.4786 33.9938 13.2864C33.9591 13.0941 33.7884 12.9689 33.6123 13.0068C33.1621 13.1035 32.7121 13.2005 32.2622 13.2971C32.0862 13.3349 31.9715 13.5214 32.0062 13.7137C32.0409 13.9059 32.2117 14.0311 32.3878 13.9933Z" fill="black"/>
<path d="M36.6594 19.8915C37.0635 19.5025 37.4676 19.1135 37.8714 18.7245C38.0322 18.5696 38.0438 18.3061 37.8972 18.136C37.7506 17.966 37.5014 17.9537 37.3405 18.1087C36.9369 18.4976 36.5329 18.8864 36.1288 19.2753C35.9678 19.4303 35.9562 19.6938 36.1027 19.8639C36.2492 20.034 36.4985 20.0463 36.6594 19.8915Z" fill="black"/>
</svg>
