<svg width="107" height="70" viewBox="0 0 107 70" fill="none" xmlns="http://www.w3.org/2000/svg">
<g opacity="0.25">
<path fill-rule="evenodd" clip-rule="evenodd" d="M0 23.4062C0 36.1125 10.7 46.8125 23.4062 46.8125C36.1125 46.8125 46.8125 36.1125 46.8125 23.4062C46.8125 10.7 36.1125 0 23.4062 0C10.7 0 0 10.7 0 23.4062ZM13.375 23.4062C13.375 18.0562 18.0562 13.375 23.4062 13.375C28.7563 13.375 33.4375 18.0562 33.4375 23.4062C33.4375 28.7563 28.7563 33.4375 23.4062 33.4375C18.0562 33.4375 13.375 28.7563 13.375 23.4062Z" fill="#E4E4E4"/>
<path fill-rule="evenodd" clip-rule="evenodd" d="M60.1875 83.5938C60.1875 96.3 70.8875 107 83.5938 107C96.3 107 107 96.3 107 83.5938C107 70.8875 96.3 60.1875 83.5938 60.1875C70.8875 60.1875 60.1875 70.8875 60.1875 83.5938ZM73.5625 83.5938C73.5625 78.2437 78.2437 73.5625 83.5938 73.5625C88.9438 73.5625 93.625 78.2437 93.625 83.5938C93.625 88.9438 88.9438 93.625 83.5938 93.625C78.2437 93.625 73.5625 88.9438 73.5625 83.5938Z" fill="#E4E4E4"/>
<path d="M6.6875 107C4.68125 107 3.34375 106.331 2.00625 104.994C-0.66875 102.319 -0.66875 98.3063 2.00625 95.6312L95.6312 2.00625C98.3063 -0.66875 102.319 -0.66875 104.994 2.00625C107.669 4.68125 107.669 8.69375 104.994 11.3688L11.3688 104.994C10.0312 106.331 8.69375 107 6.6875 107Z" fill="#E4E4E4"/>
</g>
</svg>
