<?xml version="1.0" encoding="UTF-8"?>
<svg width="28px" height="28px" viewBox="0 0 28 28" version="1.1" xmlns="http://www.w3.org/2000/svg" xmlns:xlink="http://www.w3.org/1999/xlink">
    <!-- Generator: Sketch 59.1 (86144) - https://sketch.com -->
    <title>product-slider__zoom-out</title>
    <desc>Created with Sketch.</desc>
    <defs>
        <linearGradient x1="5.24609375%" y1="0%" x2="100%" y2="100%" id="linearGradient-1">
            <stop stop-color="#FF48DC" offset="0%"></stop>
            <stop stop-color="#433FFF" offset="100%"></stop>
        </linearGradient>
    </defs>
    <g id="Страница-товара" stroke="none" stroke-width="1" fill="none" fill-rule="evenodd">
        <g id="Artboard" transform="translate(-695.000000, -138.000000)" fill="url(#linearGradient-1)">
            <path d="M709.000269,138 C712.505984,138 715.71089,139.288489 718.166982,141.417915 L720.313708,139.272078 C720.704233,138.881554 721.337398,138.881554 721.727922,139.272078 C722.118446,139.662602 722.118446,140.295767 721.727922,140.686292 L719.581541,142.832362 C721.711179,145.288309 723,148.493283 723,151.999731 C723,155.49549 721.673205,158.652013 719.555395,161.10529 L722.020631,163.529083 C722.414451,163.916283 722.419818,164.549425 722.032618,164.943246 L722.01386,164.96223 C721.628477,165.352172 721.000979,165.359109 720.60707,164.977782 L718.104752,162.555395 C715.652013,164.673744 712.49549,166 709.000269,166 C705.494066,166 702.289004,164.71129 699.832887,162.581672 L697.686292,164.727922 C697.295767,165.118446 696.662602,165.118446 696.272078,164.727922 C695.881554,164.337398 695.881554,163.704233 696.272078,163.313708 L698.418328,161.167113 C696.28871,158.710996 695,155.505934 695,151.999731 C695,144.266736 701.267813,138 709.000269,138 Z M718.163097,144.251717 L701.251682,161.163065 C703.342416,162.932838 706.046816,164 709.000273,164 C715.626849,164 721,158.627517 721,151.999455 C721,149.046551 719.932813,146.342373 718.163097,144.251717 Z M709.000273,140 C702.373151,140 697,145.373574 697,151.999455 C697,154.953088 698.067187,157.657561 699.836951,159.748322 L716.748411,142.837018 C714.657752,141.067271 711.953487,140 709.000273,140 Z" id="product-slider__zoom-out"></path>
        </g>
    </g>
</svg>