<?xml version="1.0" encoding="UTF-8"?>
<svg width="28px" height="28px" viewBox="0 0 28 28" version="1.1" xmlns="http://www.w3.org/2000/svg" xmlns:xlink="http://www.w3.org/1999/xlink">
    <!-- Generator: Sketch 59.1 (86144) - https://sketch.com -->
    <title>product-slider__zoom-in</title>
    <desc>Created with Sketch.</desc>
    <defs>
        <linearGradient x1="5.24609375%" y1="0%" x2="100%" y2="100%" id="linearGradient-1">
            <stop stop-color="#FF48DC" offset="0%"></stop>
            <stop stop-color="#433FFF" offset="100%"></stop>
        </linearGradient>
    </defs>
    <g id="Страница-товара" stroke="none" stroke-width="1" fill="none" fill-rule="evenodd">
        <g id="Artboard" transform="translate(-652.000000, -137.000000)" fill="url(#linearGradient-1)">
            <path d="M666.000269,137 C673.731649,137 680,143.266736 680,150.999731 C680,154.49549 678.673205,157.652013 676.555395,160.10529 L679.020631,162.529083 C679.414451,162.916283 679.419818,163.549425 679.032618,163.943246 L679.01386,163.96223 C678.628477,164.352172 678.000979,164.359109 677.60707,163.977782 L675.104752,161.555395 C672.652013,163.673744 669.49549,165 666.000269,165 C658.267813,165 652,158.732187 652,150.999731 C652,143.266736 658.267813,137 666.000269,137 Z M666.000273,139 C659.373151,139 654,144.373574 654,150.999455 C654,157.626972 659.373151,163 666.000273,163 C672.626849,163 678,157.627517 678,150.999455 C678,144.373574 672.626849,139 666.000273,139 Z M666,143 C666.63112,143 667,143.448486 667,144 L667,150 L673,150 C673.429565,150 674,150.368263 674,151 C674,151.631165 673.420227,152 673,152 L667,152 L667,158 C667,158.548645 666.63112,159 666,159 C665.36888,159 665,158.49115 665,158 L665,152 L659,152 C658.432556,152 658,151.631165 658,151 C658,150.368263 658.517334,150 659,150 L665,150 L665,144 C665,143.487976 665.36888,143 666,143 Z" id="product-slider__zoom-in"></path>
        </g>
    </g>
</svg>