<svg width="81" height="81" viewBox="0 0 81 81" fill="none" xmlns="http://www.w3.org/2000/svg">
<path d="M40.4999 18.7292C42.1395 18.7292 43.4687 20.0584 43.4687 21.698V46.4376C43.4687 48.0771 42.1395 49.4063 40.4999 49.4063C38.8604 49.4063 37.5312 48.0771 37.5312 46.4376V21.698C37.5312 20.0584 38.8604 18.7292 40.4999 18.7292Z" fill="#FFB50C"/>
<path d="M40.5 62.2621C42.6861 62.2621 44.4583 60.49 44.4583 58.3038C44.4583 56.1176 42.6861 54.3455 40.5 54.3455C38.3138 54.3455 36.5416 56.1176 36.5416 58.3038C36.5416 60.49 38.3138 62.2621 40.5 62.2621Z" fill="#FFB50C"/>
<path d="M40.5 0.916748C62.361 0.916748 80.0833 18.6388 80.0833 40.5001C80.0833 62.3612 62.361 80.0834 40.5 80.0834C34.0942 80.0834 27.9038 78.5579 22.3425 75.6818L7.19866 79.9065C4.56668 80.6415 1.83726 79.1037 1.10231 76.4718C0.859072 75.601 0.859191 74.6799 1.10247 73.8099L5.32862 58.6775C2.44601 53.1113 0.916626 46.9138 0.916626 40.5001C0.916626 18.6388 18.6387 0.916748 40.5 0.916748ZM40.5 6.85425C21.9179 6.85425 6.85413 21.918 6.85413 40.5001C6.85413 46.3173 8.32967 51.9135 11.1015 56.8777L11.6979 57.9453L7.29334 73.716L23.0736 69.3136L24.1405 69.9085C29.1002 72.6738 34.6899 74.1459 40.5 74.1459C59.082 74.1459 74.1458 59.0821 74.1458 40.5001C74.1458 21.918 59.082 6.85425 40.5 6.85425Z" fill="#FFB50C"/>
</svg>
